<?xml version="1.0" encoding="UTF-8"?>
<svg id="Layer_2" data-name="Layer 2" xmlns="http://www.w3.org/2000/svg" viewBox="0 0 512 512">
  <defs>
    <style>
      .cls-1 {
        fill: #f79226;
      }

      .cls-2 {
        fill: #f2f2f3;
      }

      .cls-3 {
        fill: #f8cf29;
      }
    </style>
  </defs>
  <g id="Layer_1-2" data-name="Layer 1">
    <g>
      <circle class="cls-3" cx="256" cy="256" r="256"/>
      <circle class="cls-1" cx="256" cy="256" r="167.72"/>
      <path class="cls-2" d="M322.21,423.72c-8.67,.04-16.94-3.6-22.76-10.03-5.34-5.91-7.91-13.81-7.06-21.73l6.35-141.9c-12.27-6.48-20.92-18.19-23.52-31.82-2.85-16.19-1.85-32.82,2.92-48.55l5.67-18.65c7.2-21.19,30.21-32.53,51.4-25.33,11.92,4.05,21.28,13.41,25.33,25.33l5.67,18.65c4.77,15.73,5.77,32.36,2.92,48.55-2.59,13.63-11.24,25.34-23.51,31.82l6.38,142.49c.73,7.73-1.84,15.4-7.06,21.14-5.81,6.42-14.07,10.06-22.73,10.03Zm0-282.48c-9.65-.22-18.33,5.83-21.47,14.95l-5.67,18.66c-3.96,13.06-4.79,26.87-2.43,40.31,1.91,9.79,8.89,17.83,18.32,21.09,3.58,1.35,5.88,4.84,5.71,8.66l-6.66,148.44c-.45,3.1,.5,6.25,2.6,8.58,5.32,5.26,13.88,5.26,19.19,0,1.99-2.16,2.96-5.07,2.65-8l-6.71-149.02c-.17-3.82,2.13-7.31,5.71-8.66,9.43-3.26,16.41-11.3,18.32-21.09,2.36-13.44,1.53-27.25-2.42-40.31l-5.67-18.66c-3.14-9.13-11.82-15.18-21.48-14.95ZM189.79,423.72c-16.48,0-29.83-13.37-29.82-29.85,0-.49,.01-.97,.04-1.46l7.53-150.59-23.71-23.72c-1.66-1.66-2.59-3.9-2.59-6.24v-79.45c0-4.88,3.95-8.83,8.83-8.83s8.83,3.95,8.83,8.83v75.79l23.9,23.9c1.77,1.76,2.71,4.19,2.59,6.68l-7.72,154.48c-.18,3.33,1.02,6.59,3.34,9,4.83,4.88,12.7,4.91,17.58,.08l.08-.08c2.31-2.41,3.52-5.66,3.34-9l-7.78-154.48c-.12-2.49,.81-4.92,2.58-6.68l23.91-23.9v-75.79c0-4.88,3.95-8.83,8.83-8.83s8.83,3.95,8.83,8.83v79.45c0,2.34-.93,4.59-2.59,6.24l-23.71,23.72,7.53,150.59c.81,16.46-11.87,30.46-28.33,31.28-.49,.02-.97,.04-1.46,.04Z"/>
      <path class="cls-2" d="M176.55,211.86c-4.88,0-8.83-3.95-8.83-8.83v-70.62c0-4.88,3.95-8.83,8.83-8.83s8.83,3.95,8.83,8.83v70.62c0,4.88-3.95,8.83-8.83,8.83Zm26.48,0c-4.88,0-8.83-3.95-8.83-8.83v-70.62c0-4.88,3.95-8.83,8.83-8.83s8.83,3.95,8.83,8.83v70.62c0,4.88-3.95,8.83-8.83,8.83Z"/>
    </g>
  </g>
</svg>