<?xml version="1.0" encoding="UTF-8"?>
<svg id="Layer_2" data-name="Layer 2" xmlns="http://www.w3.org/2000/svg" viewBox="0 0 472 464">
  <defs>
    <style>
      .cls-1 {
        fill: #cfcecc;
      }

      .cls-2 {
        fill: #df6157;
      }

      .cls-3 {
        fill: #fbb582;
      }

      .cls-4 {
        fill: #c8483c;
      }

      .cls-5 {
        fill: #d5d5d3;
      }

      .cls-6 {
        fill: #c6c6c4;
      }

      .cls-7 {
        fill: #34517c;
      }

      .cls-8 {
        fill: #d65246;
      }

      .cls-9 {
        fill: #fcc9a3;
      }

      .cls-10 {
        fill: #7a442a;
      }

      .cls-11 {
        fill: #2f486e;
      }
    </style>
  </defs>
  <g id="Layer_1-2" data-name="Layer 1">
    <g>
      <circle class="cls-5" cx="340" cy="100" r="28"/>
      <path class="cls-5" d="M392,176h-16v-21.19l-30.25-37.81,12.49-10,32,40c1.14,1.42,1.75,3.18,1.75,5v24Z"/>
      <path class="cls-9" d="M248,72l-16,8v8c0,8.84-7.16,16-16,16h-48V24h64v24l5.33,8,10.67,16Z"/>
      <path class="cls-3" d="M237.33,56h-37.33v-16h32v8l5.33,8Z"/>
      <path class="cls-4" d="M24,328h56v48H24v-48Z"/>
      <circle class="cls-7" cx="104" cy="408" r="56"/>
      <circle class="cls-5" cx="104" cy="408" r="24"/>
      <path class="cls-8" d="M24,112H120c8.84,0,16,7.16,16,16v112H8v-112c0-8.84,7.16-16,16-16Z"/>
      <path class="cls-2" d="M32,168h16v48h-16v-48Z"/>
      <path class="cls-4" d="M8,136H136v16H8v-16Z"/>
      <path class="cls-8" d="M295.03,384.97l49.94-49.94c4.5-4.5,7.03-10.61,7.03-16.97v-62.06c0-17.67,14.33-32,32-32v40c0,22.09,17.91,40,40,40v32h-17.84c-9.02,0-17.61,3.8-23.68,10.47l-60.96,67.05c-6.06,6.67-14.66,10.47-23.68,10.47H8c0-50.96,36.44-94.63,86.58-103.74l1.42-.26v-32H232c0,13.77-10.13,25.45-23.76,27.39-18.5,2.64-32.24,18.49-32.24,37.17v1.88c0,20.74,16.81,37.55,37.55,37.55h64.51c6.36,0,12.47-2.53,16.97-7.03h0Z"/>
      <path class="cls-2" d="M88.29,363.58l-6.14-14.78c5.38-2.23,10.99-3.88,16.73-4.93l2.86,15.74c-4.61,.84-9.12,2.16-13.45,3.96h0Zm-33.76,31.91l-14.4-6.97c6.2-12.79,15.63-23.74,27.36-31.77l9.03,13.21c-9.43,6.45-17.01,15.25-21.99,25.53h0Z"/>
      <path class="cls-5" d="M136,240H8C3.58,240,0,243.58,0,248v9.32c0,7.74,5.53,14.36,13.14,15.75l81.43,14.8c.47,.09,.95,.13,1.43,.13h40c4.42,0,8-3.58,8-8v-32c0-4.42-3.58-8-8-8Zm-8,32h-31.28l-80.72-14.68v-1.32h112v16Z"/>
      <path class="cls-8" d="M240,40h-40v19c0,11.6-9.4,21-21,21-3.88,0-7.69-1.08-11-3.11-1.1-.67-2.13-1.45-3.09-2.32-3.87-3.49-6.29-8.3-6.8-13.48l-1.71-17.11C154.2,22,170.23,2.4,192.2,.2,193.53,.07,194.87,0,196.2,0h3.8C222.09,0,240,17.91,240,40Z"/>
      <path class="cls-10" d="M168,216v16c0,13.25,10.75,24,24,24h80l-40,104h40l37.6-90.52c4.66-11.22,3.77-23.97-2.39-34.44-6.95-11.8-19.62-19.04-33.31-19.04h-105.9Z"/>
      <path class="cls-8" d="M264,160l-48-56h-48v112h64v-40l8.97,8.97c4.5,4.5,10.61,7.03,16.97,7.03h78.06v-32h-72Zm88,64h64v-56h-14.11c-10.96,0-20.99,6.19-25.89,16l-24,8v32Z"/>
      <path class="cls-7" d="M472,408c-.02,30.91-25.09,55.95-56,55.93-30.91-.02-55.95-25.09-55.93-56s25.09-55.95,56-55.93c27.82,.02,51.4,20.46,55.36,48,.38,2.65,.57,5.32,.57,8Z"/>
      <path class="cls-11" d="M471.43,400h-63.43l-31.68,47.52c-21.82-21.92-21.74-57.38,.18-79.2,21.92-21.82,57.38-21.74,79.2,.18,8.5,8.53,14.02,19.58,15.74,31.5Z"/>
      <path class="cls-1" d="M439,408c.01,13.27-10.73,24.04-24,24.05-13.27,.01-24.04-10.73-24.05-24-.01-13.27,10.73-24.04,24-24.05,10.18-.01,19.27,6.4,22.67,16,.92,2.57,1.39,5.27,1.38,8Z"/>
      <path class="cls-6" d="M437.62,400h-29.62l-13.57,20.35c-6.83-11.36-3.15-26.1,8.2-32.93s26.1-3.15,32.93,8.2c.83,1.38,1.52,2.85,2.06,4.37Z"/>
      <path class="cls-5" d="M380,395.15l24.5,24.5c5.8,5.8,15.2,5.8,21,0h0c5.8-5.8,5.8-15.2,0-21h0s-24.5-24.5-24.5-24.5l-21,21Z"/>
      <path class="cls-8" d="M344,432h32l32-48h64c0-26.51-21.49-48-48-48h-16c-35.35,0-64,28.65-64,64v32Z"/>
      <path class="cls-9" d="M336,160v32l16,8v16h32v-40l-48-16Z"/>
      <circle class="cls-7" cx="352" cy="208" r="16"/>
      <path class="cls-4" d="M96,312h56v16h-56v-16Zm166.06,96H112v-16h166.06c6.36,0,12.47-2.53,16.97-7.03l.97-.97-16.97,16.97c-4.5,4.5-10.61,7.03-16.97,7.03Zm145.94-80c-35.11,.05-65.09,25.38-70.98,60h16.29c5.67-25.67,28.4-43.96,54.69-44h16v-16h-16Z"/>
      <path class="cls-7" d="M152,256h64c8.84,0,16,7.16,16,16h0c0,8.84-7.16,16-16,16h-64c-8.84,0-16-7.16-16-16h0c0-8.84,7.16-16,16-16Z"/>
      <path class="cls-4" d="M232,177.37l-26.34-26.34-11.31,11.31,37.66,37.66v-22.63Z"/>
      <path class="cls-5" d="M232,360h48c8.84,0,16,7.16,16,16s-7.16,16-16,16h-48v-32Z"/>
    </g>
  </g>
</svg>