<?xml version="1.0" encoding="UTF-8"?>
<svg id="Layer_2" data-name="Layer 2" xmlns="http://www.w3.org/2000/svg" viewBox="0 0 464 480">
  <defs>
    <style>
      .cls-1 {
        fill: #125385;
      }

      .cls-2 {
        fill: #ab6647;
      }

      .cls-3 {
        fill: #f5cbaa;
      }

      .cls-4 {
        fill: #93583e;
      }

      .cls-5 {
        fill: #d9dbdd;
      }

      .cls-6 {
        fill: #e74344;
      }

      .cls-7 {
        fill: #7a4833;
      }
    </style>
  </defs>
  <g id="Layer_1-2" data-name="Layer 1">
    <g>
      <path class="cls-4" d="M320,112l39.35,133.79c.43,1.46,.65,2.98,.65,4.51v229.7H232V112h88Z"/>
      <path class="cls-7" d="M320,456c-4.42,0-8-3.58-8-8v-168c0-4.42,3.58-8,8-8s8,3.58,8,8v168c0,4.42-3.58,8-8,8Z"/>
      <path class="cls-2" d="M280,480H0V251.94c0-2.62,.32-5.22,.95-7.76L40,112H320l-39.04,132.18c-.63,2.54-.95,5.14-.95,7.76v228.06Z"/>
      <path class="cls-6" d="M102.82,424h-13.63c-8.84,0-16-7.16-16-16,0-.38,.01-.76,.04-1.14l6.78-94.86h32l6.78,94.86c.63,8.81-6.01,16.47-14.82,17.1-.38,.03-.76,.04-1.14,.04Zm87.5,0h-12.64c-8.84,0-16-7.16-16-16,0-.53,.03-1.06,.08-1.59l6.24-62.41h32l6.24,62.41c.88,8.79-5.54,16.63-14.33,17.51-.53,.05-1.06,.08-1.59,.08Z"/>
      <path class="cls-4" d="M32,64c-8.84,0-16,10.75-16,24s7.16,24,16,24H320v-48H32Z"/>
      <path class="cls-3" d="M368,84.77c0,19.45-15.77,35.23-35.23,35.23h-19.67c-.72,0-1.41,.24-1.98,.68l-49.93,38.83c-11.75,9.14-28.67,7.15-37.98-4.48-8.67-10.83-7.8-26.45,2.01-36.26l49.26-49.26c1.26-1.26,1.26-3.3,0-4.56-.61-.61-1.43-.95-2.28-.95H128L208.11,20.3c5.17-2.82,10.97-4.3,16.87-4.3h203.79c1.78,0,3.23,1.44,3.23,3.23v57.55c0,1.78-1.44,3.23-3.23,3.23h-56c-2.64,0-4.77,2.14-4.77,4.77h0Z"/>
      <path class="cls-1" d="M400,0h64V104h-64V0Z"/>
      <path class="cls-7" d="M280,480l40-40,40,40h-80Z"/>
      <path class="cls-5" d="M128,248c-4.42,0-8,3.58-8,8v24h-16v-24c0-4.42-3.58-8-8-8s-8,3.58-8,8v24h-16v-24c0-4.42-3.58-8-8-8s-8,3.58-8,8v24l24,32h32l24-32v-24c0-4.42-3.58-8-8-8Zm40,96v-8l-16-8s6-80,48-80v96h-32Z"/>
    </g>
  </g>
</svg>