<?xml version="1.0" encoding="UTF-8"?>
<svg id="Layer_2" data-name="Layer 2" xmlns="http://www.w3.org/2000/svg" viewBox="0 0 490 512">
  <defs>
    <style>
      .cls-1 {
        fill: #45304c;
      }

      .cls-2 {
        fill: #f68724;
      }

      .cls-3 {
        fill: #fbac18;
      }

      .cls-4 {
        fill: #84bd41;
      }

      .cls-5 {
        fill: #9ccc49;
      }

      .cls-6 {
        fill: #81698c;
      }

      .cls-7 {
        fill: #c63727;
      }

      .cls-8 {
        fill: #ef4323;
      }

      .cls-9 {
        fill: #f47426;
      }

      .cls-10 {
        fill: #6d5575;
      }

      .cls-11 {
        fill: #f2622c;
      }

      .cls-12 {
        fill: #543e5b;
      }
    </style>
  </defs>
  <g id="Layer_1-2" data-name="Layer 1">
    <g id="Bangladeshi">
      <path class="cls-4" d="M8.55,331.32H481.46c5.56-20.5,8.55-42.06,8.55-64.32,0-135.31-109.69-245-245-245S0,131.69,0,267c0,22.26,2.99,43.82,8.55,64.32Z"/>
      <path class="cls-12" d="M279.47,34.15c-5.88-1.81-12.17-2.88-18.7-3.17-10.37-.47-19.47-7.48-22.65-17.46l-4-12.59c-30.52,5.18-53.77,31.73-53.77,63.72v7.2c20.53-5.92,42.22-9.1,64.65-9.1s44.12,3.18,64.65,9.1v-7.2c0-12.19-3.38-23.58-9.24-33.31-6.24,3.95-13.89,4.97-20.95,2.8h0Z"/>
      <path class="cls-10" d="M482.94,284.3c-3.48,4.49-7.06,6.66-10.49,6.51-5.49-.27-9.35-6.32-9.41-6.41-1.1-1.66-109.83-166.59-118.24-182.98-2.2-4.29-2.58-7.89-1.11-10.67,2.72-5.18,10.94-6.31,11.02-6.32l.14-.02,1.51-.49c-33.26-17.54-71.14-27.48-111.35-27.48-56.36,0-108.15,19.51-149.03,52.13-.48,2.69-.8,7.64,2.08,11.58,2.4,3.28,6.43,5.11,12.01,5.43-.56,3.13-1.07,9.51,2.74,13.9,2.97,3.43,7.85,4.85,14.49,4.25-1.65,11.59-8.15,71.12,25.35,111.28,21,25.17,53.45,38.09,96.48,38.41-.59,8.76-1.64,50.06,27.85,80.14,26.12,26.64,68.36,37.42,125.57,32.05,.24,2.24,1.15,6.21,4.54,9.26,3.75,3.38,9.38,4.62,16.74,3.71,.61,2.04,2.19,5.91,5.88,9.38,23.98-27.5,41.92-60.39,51.75-96.63,1.78-11.84,2.67-23.8,2.67-35.77,0-4.14-.11-8.26-.31-12.34-.3,.37-.6,.73-.87,1.09h0Z"/>
      <path class="cls-6" d="M483.89,285.49c-3.66-88.33-55.21-164.28-129.39-202.56-.17,.02-19.56,2.57-11.05,19.16,8.55,16.66,118.33,183.12,118.33,183.12,0,0,9.84,15.76,22.11,.27Z"/>
      <path class="cls-12" d="M424.96,416.88c-21.8,3.39-20.99-12.94-20.99-12.94-168.45,16.61-153.21-112.04-153.21-112.04-149,0-121.67-149.91-121.67-149.91-23.34,3.33-17.16-17.88-17.16-17.88-19.43,0-14.1-16.93-14.06-17.06C41.88,150.82,5.88,218.98,5.88,295.55c0,12.16,.91,24.1,2.67,35.77,24.32,89.6,98.19,158.81,190.38,176.35v-.02h92.15v.02c55.42-10.55,104.22-39.77,139.61-80.87-4.84-4.6-5.74-9.91-5.74-9.91Z"/>
      <path class="cls-12" d="M112.8,139.46c2.97,3.43,7.86,4.85,14.5,4.25-1.65,11.59-8.15,71.12,25.35,111.28,21,25.17,53.45,38.09,96.47,38.41-.59,8.76-1.64,50.06,27.85,80.14,26.12,26.64,68.36,37.42,125.57,32.05,.24,2.24,1.15,6.21,4.54,9.26,3.75,3.38,9.37,4.62,16.73,3.71,24.1-34.96,38.21-77.33,38.21-123.01,0-119.86-97.17-217.02-217.02-217.02-51.01,0-97.9,17.6-134.95,47.06-.56,3.14-1.06,9.49,2.74,13.88h0Z"/>
      <path class="cls-1" d="M424.94,416.89c-21.78,3.38-20.98-12.94-20.98-12.94-168.45,16.61-153.21-112.04-153.21-112.04-149,0-121.67-149.91-121.67-149.91-23.27,3.32-17.2-17.75-17.17-17.87C60.84,163.83,27.98,225.85,27.98,295.55c0,104.05,73.22,190.98,170.95,212.11,15.19,2.89,30.62,4.35,46.08,4.34,15.75,0,31.15-1.51,46.08-4.35,55.5-12,103.1-45.23,133.87-90.77h0Z"/>
      <path class="cls-8" d="M127.3,143.71c-1.65,11.59-8.15,71.12,25.35,111.28,21,25.17,53.45,38.09,96.47,38.41-.59,8.76-1.64,50.06,27.85,80.14,26.12,26.64,68.36,37.42,125.57,32.05,.01,.11,.03,.23,.04,.35,21.93-31.25,34.81-69.31,34.81-110.39,0-106.26-86.14-192.39-192.39-192.39-44.56,0-85.58,15.15-118.19,40.58,.17-.01,.32-.01,.49-.03h0Z"/>
      <circle class="cls-7" cx="271.22" cy="175.98" r="26.42" transform="translate(.36 352.51) rotate(-66.07)"/>
      <circle class="cls-7" cx="329.25" cy="171.5" r="22"/>
      <path class="cls-7" d="M403.97,403.94c-168.45,16.61-153.21-112.04-153.21-112.04-148.82,0-121.74-149.54-121.67-149.91-46.45,35.12-76.47,90.83-76.47,153.55,0,106.26,86.14,192.39,192.39,192.39,66.05,0,124.32-33.29,158.96-84Z"/>
      <path class="cls-7" d="M393.5,362.19c0-15.59-11.55-28.47-26.56-30.57-4.7-12.35-16.64-21.12-30.64-21.12-.3,0-.6,.02-.89,.02-1.48-6.93-4.29-13.51-8.28-19.37,6.18-8.28,9.51-18.33,9.49-28.66,0-26.51-21.49-48-48-48-9.06-.01-17.94,2.56-25.6,7.4-4.4-14.97-18.23-25.9-34.62-25.9-18.36,0-33.51,13.71-35.78,31.46-1.36,.62-2.68,1.31-3.97,2.07-3.04-6.51-7.84-12.03-13.77-15.98,6.4-3.5,10.74-10.29,10.74-18.09,0-11.38-9.23-20.61-20.61-20.61-3.19,0-6.19,.74-8.88,2.04-4.77-7.3-13.01-12.12-22.39-12.12-14.77,0-26.74,11.97-26.74,26.74,0,12.37,8.41,22.78,19.82,25.83-7.73,7.13-12.58,17.35-12.58,28.69,0,21.56,17.48,39.03,39.03,39.03,5.87,0,11.43-1.3,16.43-3.62,5.96,16.92,22.07,29.06,41.04,29.06,6.39,0,12.46-1.39,17.92-3.87-1.47,5.02-2.21,10.22-2.21,15.45,0,30.42,24.66,55.09,55.09,55.09,11.49,.01,22.69-3.58,32.03-10.28,5.61,5.4,13.13,8.82,21.45,9.14,3.23,6.43,8.61,11.54,15.2,14.44-1.83,2.94-2.81,6.33-2.81,9.79,0,10.27,8.32,18.59,18.59,18.59s18.59-8.32,18.59-18.59c0-4.78-1.82-9.12-4.78-12.42,8.25-5.54,13.69-14.96,13.69-25.65h0Z"/>
      <circle class="cls-8" cx="149.01" cy="237.77" r="34.75"/>
      <circle class="cls-8" cx="107.02" cy="264.14" r="21.95"/>
      <path class="cls-8" d="M313.14,314.97c0-30.29-24.56-54.85-54.85-54.85-26.48,0-48.58,18.77-53.72,43.74-5.02-2.05-10.38-3.1-15.8-3.09-23.13,0-41.89,18.76-41.89,41.89s18.76,41.89,41.89,41.89c3.54,0,6.97-.44,10.25-1.27-1.48,3.71-2.24,7.66-2.24,11.65,0,17.4,14.1,31.51,31.51,31.51s31.51-14.11,31.51-31.51c0-11.3-5.95-21.2-14.88-26.76,4.37,1.1,8.87,1.65,13.38,1.65,30.29,0,54.85-24.56,54.85-54.85h0Z"/>
      <path class="cls-10" d="M245,0c-4.23,0-8.37,.42-12.37,1.2l4.06,12.77c3.36,10.57,12.92,18.01,24.01,18.51,5.47,.25,11.79,1.09,18.33,3.1,7.54,2.32,15.62,1.19,22.14-2.93C290.03,13.15,269.06,0,245,0Z"/>
      <path class="cls-11" d="M245.89,298.94c-6.41-6.42-9.49-15.83-7.65-23.43,1.59-6.55,6.68-11.38,14.71-13.96,8.6-2.76,16.48-.39,23.41,7.05,2.97,3.19,5.14,6.68,6.48,9.16,6.36-11.4,9.79-23.25-.16-36.25-10.8-14.12-31.29-14.9-47.62-12.72-22.31,2.98-38,23.97-33.6,46.05,3.8,19.02,17.3,34.74,25.09,42.53,12.9,12.89,34.89,15.68,38.94-6.57,.17-.95,.4-1.89,.67-2.84-6.11-.89-14.44-3.17-20.27-9.01h0Z"/>
      <path class="cls-9" d="M292.57,350.31c-1.17-4.91-3.25-9.56-6.16-13.69-3.72,6.39-10.17,12.21-16.1,17.55-2.49,2.25-4.85,4.37-6.96,6.48-5.62,5.62-11.81,6.85-18.39,3.65-5.88-2.86-11.68-4.24-17.21-4.1-4.58,.14-8.33-1.32-11.18-4.25-3.4-3.5-5.08-8.61-5.91-13.13-2.48,2.53-4.84,5.16-7.08,7.9-11.54,14.12-12.1,36.29,10.44,38.08,22.54,1.8,46.97,32.37,70.66,10.17,12.97-12.15,11.69-32.62,7.89-48.66h0Z"/>
      <path class="cls-11" d="M197.42,268.75c-22.19-4.36-42.96-37.54-69.03-18.18-7.41,5.5-11.26,13.67-12.97,22.54,11.06,.05,21.86,4.15,24.35,18.96,2.33,13.82,11.46,15.55,19.51,17.07,8.43,1.6,16.4,3.11,18.35,17.3,11.31-5.58,20.42-13.42,25.81-18.65,13.08-12.71,16.17-34.66-6.02-39.03h0Z"/>
      <path class="cls-9" d="M141.25,291.81c-2.83-16.8-15.87-20.09-25.52-20.22-1.93,8.64-1.74,18.06-.74,26.42,2.66,22.35,23.43,38.34,45.56,34.25,6.61-1.22,12.84-3.61,18.48-6.54-4.33-28.86-33.37-7.68-37.79-33.91h0Zm83.63-34.42c-3.92-3.3-9.19-4.59-15.66-3.84-8.53,1-13.57-2.73-14.99-11.09-.04-.22-.09-.44-.13-.66-4.92,3.62-12.83,6.55-24.52,3.2-10.97-3.15-13.73-9.99-13.67-16.23-7.73,15.04-15.21,30.45-1.09,45.69,12.09,13.03,32.56,11.87,48.62,8.14,10.99-2.54,20.39-9.63,25.85-19.5-.98-1.97-2.38-4.01-4.41-5.72Zm91.97-43.16c-6.39-4.47-14.35-10.04-31.16-8.22-10.35,1.12-18.1-.96-23.03-6.19-4.52-4.8-5.91-11.46-6.23-16.67-7.03,9.87-11.31,20.51-13.61,27.4-5.76,17.3,1.59,38.22,23.3,31.89,21.71-6.34,55.41,13.56,69.65-15.61,2.1-4.31,3.02-8.82,3.05-13.37-11.22,8.29-15.5,5.31-21.98,.78h0Z"/>
      <path class="cls-2" d="M312.17,395.63c5.08-5.08,5.9-10.35,5.41-14.42-.27-.16-.54-.32-.81-.48-4.96-3.01-7.88-7.06-8.66-12.05-1.34-8.51,3.61-18.18,7.68-24.44-6.03,1.09-11.7,3.63-16.53,7.39-15.32,11.91-23.33,31.01-26.81,41.46-5.77,17.3,1.59,38.22,23.3,31.89,1.85-.54,3.78-.89,5.77-1.09-4.35-11.26,3.38-20.99,10.64-28.25h0Z"/>
      <path class="cls-9" d="M322.77,384.29c-1.96-1.16-3.96-2.34-5.99-3.57-.5-.3-.96-.62-1.42-.95,.86,4.21,.52,10.16-5.18,15.86-7.31,7.31-15.1,17.14-10.54,28.5,14.51-2.25,33.06,4.22,47.77,.48,2.32-5.78,2.94-10.89,1.87-15.46-2.5-10.68-13.62-17.25-26.5-24.86Z"/>
      <path class="cls-2" d="M366.5,301.81c-1.59-7.88-3.39-16.81-20.92-16.81-8.2,0-13.41-2.04-15.5-6.06-4.64-8.94,6.66-25.15,6.77-25.31l.2-.28,.24-1.4c-18.11,9.02-42.91,13.54-41.54,39.5,.94,17.75,17.41,29.96,32.12,37.39,17.95,9.05,39.63,3.27,50.36-12.82-9.25-1.85-10.42-7.68-11.74-14.21h0Zm-179.84,85.56c-4.72-4.07-10.71-6.11-17.84-6.11-1.43,0-2.91,.08-4.43,.25-7.07,.76-12.12-.71-15.02-4.39-6.74-8.53-.52-26.31-.46-26.49l.7-1.99c-.71,.47-1.42,.96-2.11,1.49-12.46,9.69-18.98,25.23-21.81,33.73-4.69,14.08,1.29,31.09,18.95,25.94,15.45-4.51,38.37,7.32,51.62-5.55-1.2-5.01-3.82-11.9-9.6-16.87h0Z"/>
      <path class="cls-5" d="M380.92,333.54l-4.3,7.44c-.8,1.39-2.59,1.87-3.98,1.07,0,0,0,0,0,0l-15.53-8.97c-1.39-.8-1.87-2.59-1.07-3.98,0,0,0,0,0,0l4.3-7.44c.8-1.39,2.59-1.87,3.98-1.07,0,0,0,0,0,0l15.53,8.97c1.39,.81,1.87,2.59,1.07,3.98Z"/>
      <path class="cls-4" d="M236.6,174.86h-11.88c-2.23,0-4.03-1.8-4.03-4.03h0v-24.8c0-2.23,1.8-4.03,4.03-4.03h11.88c2.23,0,4.03,1.8,4.03,4.03h0v24.8c0,2.23-1.8,4.03-4.03,4.03h0Z"/>
      <path class="cls-5" d="M230.55,176l-4.96,8.59c-.93,1.61-2.99,2.16-4.6,1.23l-17.94-10.36c-1.61-.93-2.16-2.99-1.23-4.6l4.96-8.59c.93-1.61,2.99-2.16,4.6-1.23l17.94,10.36c1.61,.93,2.16,2.99,1.23,4.6Zm-115.5,165.51l-5.96-7.93c-1.12-1.49-.82-3.6,.67-4.71l16.56-12.45c1.49-1.12,3.6-.82,4.71,.67l5.96,7.93c1.12,1.49,.82,3.6-.67,4.71l-16.56,12.45c-1.49,1.12-3.6,.82-4.71-.67Zm79.64-16.54c-2.24-.82-2.93-3.56-1.47-5.45,2.15-2.78,3.77-7.16,.38-12.86-6.18-10.37-10.76-17.2-5.98-20.04,4.49-2.67,7.07,2.56,7.07,2.56,0,0-1.95-13.55,8.75-6.58,0,0-.12-15.93,8.47-14.32,8.69,1.64,2.08,16.85,2.08,16.85,0,0,8.66-2.97,10.77,1.95,1.95,4.57-8.4,8.86-8.4,8.86,0,0,8.71-1.64,8.44,4.1s-14.28,8.61-19.2,13.08c-3.04,2.76-5.25,7.07-6.5,9.96-.72,1.69-2.64,2.52-4.37,1.89h-.03Zm75.97-95.59c1.45-1.9,4.27-1.74,5.64,.21,2.02,2.88,5.72,5.72,12.17,4.16,11.73-2.84,19.61-5.2,20.91,.21,1.22,5.08-4.54,6-4.54,6,0,0,13.52,2.14,3.7,10.31,0,0,15.26,4.59,11.17,12.32-4.13,7.82-16.71-3-16.71-3,0,0,.28,9.15-5.05,9.71-4.94,.51-5.98-10.64-5.98-10.64,0,0-1,8.81-6.41,6.85s-4-16.18-6.82-22.21c-1.74-3.72-5.2-7.1-7.6-9.16-1.4-1.19-1.63-3.27-.52-4.73l.02-.02Zm-25.24,165.02c1.45-1.9,4.27-1.74,5.64,.2,2.02,2.88,5.72,5.72,12.17,4.16,11.73-2.84,19.61-5.2,20.91,.21,1.22,5.08-4.54,6-4.54,6,0,0,13.52,2.14,3.7,10.31,0,0,15.26,4.59,11.17,12.32-4.13,7.82-16.71-3-16.71-3,0,0,.28,9.15-5.05,9.71-4.94,.51-5.98-10.64-5.98-10.64,0,0-1,8.81-6.41,6.85-5.41-1.96-4-16.18-6.82-22.21-1.74-3.72-5.2-7.11-7.6-9.16-1.4-1.19-1.63-3.27-.52-4.73l.02-.02Z"/>
      <circle class="cls-7" cx="365.5" cy="211.25" r="14.25"/>
      <circle class="cls-7" cx="403.74" cy="316.67" r="12.98"/>
      <path class="cls-3" d="M384.92,260.54c-3.36-17.93-19.95-32.64-35.85-16.56-3.55,3.6-8.27,6.33-13.43,8.78h0s-23.8,33.74,9.95,33.74c29.78,0,10.39,25.94,31.75,30.83,1.71-2.34,3.14-4.86,4.28-7.52,7.61-17.85,5.34-38.44,3.31-49.26h0Z"/>
      <path class="cls-2" d="M287.35,338.01c-9.15-14.29-26.85-21.76-43.96-16.51-14.37,4.4-26.16,14.39-33.99,22.64,1.71,8.21,6.29,17.86,18.39,17.56,5.74-.14,11.36,1.44,16.52,3.95,5.25,2.55,12.62,3.54,20.1-3.94,7.07-7.07,17.45-14.76,22.93-23.7Z"/>
      <path class="cls-9" d="M283.7,276.19c-4.21-7.43-14.6-21.39-31.2-16.07-22.25,7.13-18.51,29.04-7.67,39.88,6.09,6.09,14.64,8.5,20.95,9.43,2.58-11.07,11.92-21.92,17.92-33.24Z"/>
      <path class="cls-2" d="M325.85,178.53c-1.73-2.55-3.76-4.89-6.03-6.97-.23,9.92-3.66,26.76-23.81,35.79,23.14,2.13,23.16,21.8,42.75,7.99,.82-12.9-5.81-26.34-12.91-36.81h0Z"/>
      <path class="cls-3" d="M320.82,172.51c-13.63-13.43-35.52-15.6-51.18-3.42-5.88,4.57-10.68,10.21-14.56,16,1.11,10.54,6.9,25,30.77,22.41,4.94-.54,9.08-.4,12.65,.15,18.87-9.19,22.11-25.49,22.32-35.15Z"/>
      <path class="cls-2" d="M194.24,242.47c-.82-4.84-2.82-9.37-5.77-13.1-11.8-14.92,2.3-34.12,7.68-40.48-13.35-6.48-29.17-3.9-30.77,14.97-.69,8.09-5.09,16.41-9.43,24.84-.39,6.5,2.04,13.97,13.64,17.3,11.83,3.39,19.79,.35,24.7-3.33-.01-.07-.03-.13-.04-.21h0Z"/>
      <path class="cls-3" d="M232.52,233.58c-5.59-18.58-20.52-32.94-29.01-39.96-2.66-2.2-5.62-4.01-8.79-5.39-5.8,6.89-19.8,26.43-7.43,42.06,2.85,3.6,4.7,7.9,5.47,12.43,1.04,6.15,4.71,13.72,16.64,12.32,11.73-1.37,16.8,4.61,18.98,9.64,5.53-9,7.44-20.15,4.15-31.1h0Zm132.89,175.78c7.8-15.97-.67-34.65-9.93-48.28-9.49-13.98-26.39-20.08-41.75-16.41-6.35,10.21-13.69,27.66,2.27,37.34,20.85,12.64,39.33,20.51,29.62,43,8-1.58,14.99-5.83,19.78-15.65Zm-200.86-26.36c22-2.39,28.51,13.68,30.42,22.39,2.42-1.98,4.56-4.67,6.33-8.3,6.34-12.99-.54-28.19-8.08-39.28-10.29-15.15-31.27-18.93-45.73-7.69,0,0-12.89,36.12,17.06,32.87Z"/>
    </g>
  </g>
</svg>