<?xml version="1.0" encoding="UTF-8"?>
<svg id="Layer_2" data-name="Layer 2" xmlns="http://www.w3.org/2000/svg" viewBox="0 0 432.06 441.44">
  <defs>
    <style>
      .cls-1 {
        fill: #f68c21;
      }

      .cls-2 {
        fill: #e53b35;
      }
    </style>
  </defs>
  <g id="Layer_1-2" data-name="Layer 1">
    <g id="Chinese">
      <g>
        <path class="cls-2" d="M112.06,162.96l16-12.48v13.44l-16,7.52v-8.48Zm32-6.56v-17.68L379.34,28.08l6.8,14.48-242.08,113.84ZM278.7,12.72L124.62,132.72l-44.56,34.8c0-5.2-2.24-16.48,.48-20.72,2-1.99,4.23-3.74,6.64-5.2l12.08-9.44,44.8-34.72L231.58,29.04,268.86,0l9.84,12.72Z"/>
        <path class="cls-2" d="M278.7,12.72L124.62,132.72l-44.56,34.8c0-5.2-2.24-16.48,.48-20.72,2-1.99,4.23-3.74,6.64-5.2l12.08-9.44,44.8-34.72L231.58,29.04,268.86,0l9.84,12.72Zm153.36,236.72c0,50.4-20.24,97.84-64,125.04-20.22,12.4-43.48,18.96-67.2,18.96H168.06c-29.6,0-58.8,1.68-86.72-10.32-26.47-11.57-48.49-31.38-62.8-56.48C5.66,303-.72,276.36,.06,249.44H432.06Z"/>
        <path class="cls-2" d="M432.06,249.44c0,50.4-20.24,97.84-64,125.04-20.22,12.4-43.48,18.96-67.2,18.96H168.06c-29.6,0-58.8,1.68-86.72-10.32-26.47-11.57-48.49-31.38-62.8-56.48C5.66,303-.72,276.36,.06,249.44H432.06Zm-143.04-16v-.56c-.06,.18-.06,.38,0,.56Zm61.92-.56v.56c.03-.19,.03-.37,0-.56Z"/>
        <path class="cls-2" d="M400.06,233.44h-32c-4.57-26.11-29.45-43.57-55.56-39-19.91,3.49-35.51,19.08-39,39h-32c5.91-43.79,46.2-74.49,89.99-68.57,35.68,4.82,63.75,32.89,68.57,68.57Z"/>
        <path class="cls-2" d="M400.06,233.44h-32c-1.57-11.74-7.8-22.35-17.28-29.44-19.11-15.33-46.69-13.81-64,3.52-7.59,6.72-12.57,15.9-14.08,25.92h-32c3.95-44.01,42.82-76.48,86.83-72.53,38.54,3.46,69.07,34,72.53,72.53Z"/>
        <path class="cls-2" d="M351.1,233.44h-62.08c2.24-6,5.73-11.46,10.24-16,5.96-5.26,13.66-8.11,21.6-8,7.42,.26,14.52,3.09,20.08,8,4.49,4.54,7.96,10,10.16,16Z"/>
        <path class="cls-2" d="M351.1,233.44h-62.08c2.24-6,5.73-11.46,10.24-16,5.96-5.26,13.66-8.11,21.6-8,7.42,.26,14.52,3.09,20.08,8,4.49,4.54,7.96,10,10.16,16ZM80.06,187.84v45.6h-16v-43.04c5.04,6.24,11.44,1.04,16-2.56Zm32-65.6v10.24c.56,3.34,.56,6.74,0,10.08-1.04,2.08-5.6,4.4-7.36,5.76l-8.64,6.72v-10.16c-.52-3.37-.52-6.79,0-10.16,.96-2,5.68-4.4,7.44-5.76l8.56-6.72Zm0,66.88v44.32h-16v-45.36c3.68,7.2,10.72,3.52,16,1.04Zm32-91.68v10.24c.56,3.36,.56,6.8,0,10.16-1.2,2.4-6.64,5.2-8.72,6.8l-7.28,5.68v-10.32c-.52-3.39-.52-6.85,0-10.24,.96-2,5.68-4.4,7.44-5.76l8.56-6.56Zm0,76.64v59.36h-16v-51.84l16-7.52Z"/>
      </g>
      <path class="cls-1" d="M304.06,409.44c0,8,.64,15.6,0,23.28s-5.04,8.72-10.88,8.72H141.74c-6.24,0-12.64,0-13.68-8-.52-7.99-.52-16.01,0-24,19.68,1.68,40,0,59.84,0h92.16c8,0,16,.56,24,0Z"/>
      <path class="cls-1" d="M144.06,409.44h144v16H144.06v-16Zm-32-246.48l16-12.48v13.44l-16,7.52v-8.48ZM386.14,42.56l-242.08,113.84v-17.68L379.34,28.08l6.8,14.48Z"/>
    </g>
  </g>
</svg>