<?xml version="1.0" encoding="UTF-8"?>
<svg id="Layer_2" data-name="Layer 2" xmlns="http://www.w3.org/2000/svg" viewBox="0 0 480 480">
  <defs>
    <style>
      .cls-1 {
        fill: #fed20b;
      }

      .cls-2 {
        fill: #d7e6f0;
      }

      .cls-3 {
        fill: #f9a01d;
      }

      .cls-4 {
        fill: #f28937;
      }

      .cls-5 {
        fill: #555a6e;
      }

      .cls-6 {
        fill: #463c4b;
      }

      .cls-7 {
        fill: #f04c38;
      }

      .cls-8 {
        fill: #e1332c;
      }

      .cls-9 {
        fill: #d26e28;
      }

      .cls-10 {
        fill: #a5c3dc;
      }

      .cls-11 {
        fill: #ffd23d;
      }

      .cls-12 {
        fill: #a65025;
      }

      .cls-13 {
        fill: #f47828;
      }
    </style>
  </defs>
  <g id="Layer_1-2" data-name="Layer 1">
    <g id="Indian">
      <circle class="cls-5" cx="240" cy="240" r="240"/>
      <circle class="cls-6" cx="240" cy="240" r="192"/>
      <path class="cls-10" d="M224,432h48V48h-48c-106.04,0-192,85.96-192,192s85.96,192,192,192Z"/>
      <path class="cls-2" d="M224,416h48V64h-48c-97.2,0-176,78.8-176,176s78.8,176,176,176Z"/>
      <circle class="cls-1" cx="80" cy="240" r="32"/>
      <circle class="cls-1" cx="96" cy="208" r="32"/>
      <circle class="cls-3" cx="112" cy="176" r="32"/>
      <circle class="cls-1" cx="128" cy="144" r="32"/>
      <circle class="cls-3" cx="96" cy="272" r="32"/>
      <circle class="cls-1" cx="112" cy="304" r="32"/>
      <circle class="cls-3" cx="128" cy="336" r="32"/>
      <path class="cls-13" d="M272,432c8.84,0,16-7.16,16-16V64c0-8.84-7.16-16-16-16-106.04,0-192,85.96-192,192s85.96,192,192,192Z"/>
      <circle class="cls-3" cx="247.71" cy="140.68" r="13.33"/>
      <circle class="cls-3" cx="233.04" cy="163.34" r="4"/>
      <circle class="cls-3" cx="222.67" cy="345.33" r="4"/>
      <circle class="cls-3" cx="150.67" cy="324" r="4"/>
      <circle class="cls-3" cx="254.67" cy="390.67" r="4"/>
      <circle class="cls-3" cx="225.33" cy="116" r="4"/>
      <circle class="cls-3" cx="154.67" cy="170.67" r="8"/>
      <circle class="cls-3" cx="253.04" cy="199.34" r="8"/>
      <circle class="cls-3" cx="154.67" cy="301.33" r="8"/>
      <circle class="cls-10" cx="368" cy="240" r="80"/>
      <circle class="cls-4" cx="368" cy="240" r="64"/>
      <path class="cls-9" d="M344,280c0-35.35,28.65-64,64-64,7,0,13.96,1.15,20.59,3.41-8.58-25.24-32.46-43.41-60.59-43.41-35.35,0-64,28.65-64,64,0,28.14,18.17,52.02,43.41,60.59-2.26-6.63-3.41-13.59-3.41-20.59Z"/>
      <path class="cls-2" d="M296,248c-4.42,0-8-3.58-8-8,0-44.11,35.89-80,80-80,4.42,0,8,3.58,8,8s-3.58,8-8,8c-35.29,0-64,28.71-64,64,0,4.42-3.58,8-8,8Z"/>
      <circle class="cls-9" cx="404" cy="236" r="12"/>
      <circle class="cls-12" cx="340" cy="228" r="12"/>
      <circle class="cls-9" cx="380" cy="284" r="4"/>
      <circle class="cls-12" cx="380" cy="188" r="4"/>
      <circle class="cls-10" cx="344" cy="376" r="56"/>
      <path class="cls-2" d="M296,384c-4.42,0-8-3.58-8-8,0-30.88,25.12-56,56-56,4.42,0,8,3.58,8,8s-3.58,8-8,8c-22.06,0-40,17.94-40,40,0,4.42-3.58,8-8,8Z"/>
      <circle class="cls-11" cx="344" cy="376" r="40"/>
      <path class="cls-3" d="M328,400c0-22.09,17.91-40,40-40,4.78,0,9.37,.84,13.62,2.38-5.57-15.39-20.31-26.38-37.62-26.38-22.09,0-40,17.91-40,40,0,17.31,11,32.05,26.38,37.62-1.58-4.37-2.39-8.97-2.38-13.62Z"/>
      <circle class="cls-10" cx="344" cy="104" r="56"/>
      <path class="cls-2" d="M296,112c-4.42,0-8-3.58-8-8,0-30.88,25.12-56,56-56,4.42,0,8,3.58,8,8s-3.58,8-8,8c-22.06,0-40,17.94-40,40,0,4.42-3.58,8-8,8Z"/>
      <circle class="cls-7" cx="344" cy="104" r="40"/>
      <path class="cls-8" d="M328,128c0-22.09,17.91-40,40-40,4.78,0,9.37,.84,13.62,2.38-5.57-15.39-20.31-26.38-37.62-26.38-22.09,0-40,17.91-40,40,0,17.31,11,32.05,26.38,37.62-1.58-4.37-2.39-8.97-2.38-13.62Z"/>
    </g>
  </g>
</svg>