<?xml version="1.0" encoding="UTF-8"?>
<svg id="Layer_2" data-name="Layer 2" xmlns="http://www.w3.org/2000/svg" viewBox="0 0 480 480">
  <defs>
    <style>
      .cls-1 {
        fill: #d7e6f0;
      }

      .cls-2 {
        fill: #f9a01d;
      }

      .cls-3 {
        fill: #5faa45;
      }

      .cls-4 {
        fill: #68a042;
      }

      .cls-5 {
        fill: #f04c38;
      }

      .cls-6 {
        fill: #4b8d41;
      }

      .cls-7 {
        fill: #a5c3dc;
      }

      .cls-8 {
        fill: #ffd23d;
      }

      .cls-9 {
        fill: #f47828;
      }
    </style>
  </defs>
  <g id="Layer_1-2" data-name="Layer 1">
    <g id="Italian">
      <circle class="cls-1" cx="240" cy="240" r="240"/>
      <circle class="cls-7" cx="240" cy="240" r="192"/>
      <circle class="cls-2" cx="240" cy="240" r="32"/>
      <circle class="cls-8" cx="184" cy="143.01" r="80"/>
      <circle class="cls-2" cx="184" cy="143.01" r="64"/>
      <circle class="cls-8" cx="184" cy="143.01" r="48"/>
      <circle class="cls-9" cx="184" cy="143.01" r="32"/>
      <circle class="cls-8" cx="296" cy="143.01" r="80"/>
      <circle class="cls-2" cx="296" cy="143.01" r="64"/>
      <circle class="cls-8" cx="296" cy="143.01" r="48"/>
      <circle class="cls-9" cx="296" cy="143.01" r="32"/>
      <circle class="cls-8" cx="240" cy="128" r="80"/>
      <circle class="cls-2" cx="240" cy="128" r="64"/>
      <circle class="cls-8" cx="240" cy="128" r="48"/>
      <circle class="cls-8" cx="128" cy="240" r="80"/>
      <circle class="cls-2" cx="128" cy="240" r="64"/>
      <circle class="cls-8" cx="128" cy="240" r="48"/>
      <circle class="cls-9" cx="128" cy="240" r="32"/>
      <circle class="cls-8" cx="143.01" cy="184" r="80"/>
      <circle class="cls-2" cx="143.01" cy="184" r="64"/>
      <circle class="cls-8" cx="143.01" cy="184" r="48"/>
      <circle class="cls-8" cx="184" cy="336.99" r="80"/>
      <circle class="cls-2" cx="184" cy="336.99" r="64"/>
      <circle class="cls-8" cx="184" cy="336.99" r="48"/>
      <circle class="cls-9" cx="184" cy="336.99" r="32"/>
      <circle class="cls-8" cx="143.01" cy="296" r="80"/>
      <circle class="cls-2" cx="143.01" cy="296" r="64"/>
      <circle class="cls-8" cx="143.01" cy="296" r="48"/>
      <circle class="cls-8" cx="296" cy="336.99" r="80"/>
      <circle class="cls-2" cx="296" cy="336.99" r="64"/>
      <circle class="cls-8" cx="296" cy="336.99" r="48"/>
      <circle class="cls-9" cx="296" cy="336.99" r="32"/>
      <circle class="cls-8" cx="240" cy="352" r="80"/>
      <circle class="cls-2" cx="240" cy="352" r="64"/>
      <circle class="cls-8" cx="240" cy="352" r="48"/>
      <circle class="cls-8" cx="352" cy="240" r="80"/>
      <circle class="cls-2" cx="352" cy="240" r="64"/>
      <circle class="cls-8" cx="352" cy="240" r="48"/>
      <circle class="cls-9" cx="352" cy="240" r="32"/>
      <circle class="cls-8" cx="336.99" cy="296" r="80"/>
      <circle class="cls-2" cx="336.99" cy="296" r="64"/>
      <circle class="cls-8" cx="336.99" cy="296" r="48"/>
      <circle class="cls-8" cx="336.99" cy="184" r="80"/>
      <circle class="cls-2" cx="336.99" cy="184" r="64"/>
      <circle class="cls-8" cx="336.99" cy="184" r="48"/>
      <circle class="cls-2" cx="143.01" cy="296" r="32"/>
      <circle class="cls-2" cx="240" cy="352" r="32"/>
      <circle class="cls-2" cx="336.99" cy="296" r="32"/>
      <circle class="cls-2" cx="336.99" cy="184" r="32"/>
      <circle class="cls-2" cx="240" cy="128" r="32"/>
      <circle class="cls-8" cx="240" cy="192" r="80"/>
      <circle class="cls-2" cx="240" cy="192" r="64"/>
      <circle class="cls-8" cx="240" cy="192" r="48"/>
      <circle class="cls-2" cx="240" cy="192" r="32"/>
      <circle class="cls-8" cx="240" cy="288" r="80"/>
      <circle class="cls-2" cx="240" cy="288" r="64"/>
      <circle class="cls-8" cx="240" cy="288" r="48"/>
      <circle class="cls-2" cx="240" cy="288" r="32"/>
      <circle class="cls-2" cx="143.01" cy="184" r="32"/>
      <circle class="cls-8" cx="192" cy="240" r="80"/>
      <circle class="cls-2" cx="192" cy="240" r="64"/>
      <circle class="cls-8" cx="192" cy="240" r="48"/>
      <circle class="cls-2" cx="192" cy="240" r="32"/>
      <circle class="cls-8" cx="192" cy="240" r="16"/>
      <circle class="cls-8" cx="288" cy="240" r="80"/>
      <circle class="cls-2" cx="288" cy="240" r="64"/>
      <circle class="cls-8" cx="288" cy="240" r="48"/>
      <circle class="cls-2" cx="288" cy="240" r="32"/>
      <circle class="cls-8" cx="288" cy="240" r="16"/>
      <circle class="cls-3" cx="289.33" cy="322.83" r="4"/>
      <circle class="cls-3" cx="302.67" cy="294.67" r="4"/>
      <circle class="cls-3" cx="232.26" cy="306.83" r="4"/>
      <circle class="cls-3" cx="257.33" cy="278.67" r="4"/>
      <circle class="cls-3" cx="249.19" cy="347.1" r="4"/>
      <circle class="cls-3" cx="217.33" cy="331.84" r="4"/>
      <circle class="cls-3" cx="182.4" cy="318.67" r="4"/>
      <circle class="cls-3" cx="154.24" cy="305.33" r="4"/>
      <circle class="cls-3" cx="166.4" cy="375.74" r="4"/>
      <circle class="cls-3" cx="138.24" cy="350.67" r="4"/>
      <circle class="cls-3" cx="206.67" cy="358.81" r="4"/>
      <circle class="cls-3" cx="191.41" cy="390.67" r="4"/>
      <circle class="cls-5" cx="264" cy="130.67" r="16"/>
      <circle class="cls-5" cx="365.33" cy="192" r="16"/>
      <circle class="cls-5" cx="160" cy="202.67" r="16"/>
      <circle class="cls-5" cx="120" cy="290.67" r="16"/>
      <circle class="cls-5" cx="234.67" cy="352" r="16" transform="translate(-150.38 527.25) rotate(-80.78)"/>
      <circle class="cls-5" cx="357.33" cy="328" r="16"/>
      <circle class="cls-5" cx="120" cy="162.67" r="16"/>
      <circle class="cls-5" cx="290.67" cy="200" r="16"/>
      <circle class="cls-3" cx="308" cy="269.49" r="4"/>
      <circle class="cls-3" cx="321.33" cy="241.33" r="4"/>
      <circle class="cls-3" cx="250.92" cy="253.49" r="4"/>
      <circle class="cls-3" cx="276" cy="225.33" r="4"/>
      <circle class="cls-3" cx="267.86" cy="293.76" r="4"/>
      <circle class="cls-3" cx="236" cy="278.51" r="4"/>
      <circle class="cls-3" cx="222.67" cy="190.4" r="4"/>
      <circle class="cls-3" cx="236" cy="162.24" r="4"/>
      <circle class="cls-3" cx="165.59" cy="174.4" r="4"/>
      <circle class="cls-3" cx="190.67" cy="146.24" r="4"/>
      <circle class="cls-3" cx="182.52" cy="214.67" r="4"/>
      <circle class="cls-3" cx="150.67" cy="199.41" r="4"/>
      <circle class="cls-3" cx="190.67" cy="309.5" r="4"/>
      <circle class="cls-3" cx="204" cy="281.33" r="4"/>
      <circle class="cls-3" cx="133.59" cy="293.49" r="4"/>
      <circle class="cls-3" cx="158.67" cy="265.33" r="4"/>
      <circle class="cls-3" cx="150.52" cy="333.77" r="4"/>
      <circle class="cls-3" cx="118.67" cy="318.51" r="4"/>
      <circle class="cls-3" cx="398.67" cy="261.5" r="4"/>
      <circle class="cls-3" cx="412" cy="233.34" r="4"/>
      <circle class="cls-3" cx="341.59" cy="245.49" r="4"/>
      <circle class="cls-3" cx="366.67" cy="217.33" r="4"/>
      <circle class="cls-3" cx="358.52" cy="285.77" r="4"/>
      <circle class="cls-3" cx="326.67" cy="270.51" r="4"/>
      <circle class="cls-3" cx="309.95" cy="100.45" r="4"/>
      <circle class="cls-3" cx="281.79" cy="87.12" r="4"/>
      <circle class="cls-3" cx="293.95" cy="157.53" r="4"/>
      <circle class="cls-3" cx="265.78" cy="132.45" r="4"/>
      <circle class="cls-3" cx="334.22" cy="140.59" r="4"/>
      <circle class="cls-3" cx="318.96" cy="172.45" r="4"/>
      <circle class="cls-3" cx="184.16" cy="108" r="4"/>
      <circle class="cls-3" cx="156" cy="94.67" r="4"/>
      <circle class="cls-3" cx="168.16" cy="165.08" r="4"/>
      <circle class="cls-3" cx="140" cy="140" r="4"/>
      <circle class="cls-3" cx="208.43" cy="148.14" r="4"/>
      <circle class="cls-3" cx="193.18" cy="180" r="4"/>
      <circle class="cls-1" cx="316.13" cy="164.01" r="4"/>
      <circle class="cls-1" cx="281.96" cy="185.59" r="4"/>
      <circle class="cls-1" cx="248.49" cy="136.32" r="4"/>
      <circle class="cls-1" cx="195.6" cy="179.29" r="4"/>
      <circle class="cls-1" cx="170.08" cy="164.48" r="4"/>
      <circle class="cls-1" cx="227.21" cy="140.71" r="4"/>
      <circle class="cls-1" cx="172.6" cy="272.89" r="4"/>
      <circle class="cls-1" cx="137.33" cy="259.28" r="4"/>
      <circle class="cls-1" cx="163.71" cy="205.14" r="4"/>
      <circle class="cls-1" cx="300.55" cy="285.3" r="4"/>
      <circle class="cls-1" cx="250.12" cy="257.89" r="4"/>
      <circle class="cls-1" cx="258.38" cy="217.48" r="4"/>
      <circle class="cls-1" cx="348.54" cy="266.11" r="4"/>
      <circle class="cls-1" cx="296.79" cy="230.6" r="4"/>
      <circle class="cls-1" cx="340.89" cy="210.62" r="4"/>
      <circle class="cls-1" cx="188.41" cy="337.33" r="4"/>
      <circle class="cls-1" cx="164.19" cy="322.08" r="4"/>
      <circle class="cls-1" cx="210.45" cy="264.87" r="4"/>
      <circle class="cls-1" cx="266.78" cy="334.55" r="4"/>
      <circle class="cls-1" cx="273.56" cy="309.23" r="4"/>
      <circle class="cls-1" cx="314.46" cy="314.58" r="4"/>
      <circle class="cls-1" cx="291.59" cy="138.35" r="4"/>
      <circle class="cls-1" cx="257.42" cy="159.94" r="4"/>
      <circle class="cls-1" cx="223.95" cy="110.67" r="4"/>
      <circle class="cls-1" cx="171.06" cy="153.64" r="4"/>
      <circle class="cls-1" cx="145.54" cy="138.83" r="4"/>
      <circle class="cls-1" cx="202.67" cy="115.06" r="4"/>
      <circle class="cls-1" cx="148.06" cy="247.24" r="4"/>
      <circle class="cls-1" cx="112.79" cy="233.62" r="4"/>
      <circle class="cls-1" cx="139.18" cy="179.48" r="4"/>
      <circle class="cls-1" cx="276.01" cy="259.65" r="4"/>
      <circle class="cls-1" cx="225.58" cy="232.24" r="4"/>
      <circle class="cls-1" cx="233.84" cy="191.83" r="4"/>
      <circle class="cls-1" cx="324" cy="240.46" r="4"/>
      <circle class="cls-1" cx="272.25" cy="204.94" r="4"/>
      <circle class="cls-1" cx="316.35" cy="184.97" r="4"/>
      <circle class="cls-1" cx="163.87" cy="311.68" r="4"/>
      <circle class="cls-1" cx="139.65" cy="296.42" r="4"/>
      <circle class="cls-1" cx="185.91" cy="239.21" r="4"/>
      <circle class="cls-1" cx="242.24" cy="308.9" r="4"/>
      <circle class="cls-1" cx="249.02" cy="283.58" r="4"/>
      <circle class="cls-1" cx="289.92" cy="288.92" r="4"/>
      <path class="cls-4" d="M253.17,193.86l-7.52-7.51c-3.12-3.12-8.19-3.12-11.31,0l-7.51,7.52c-6.98,6.98-10.83,16.27-10.83,26.14s3.85,19.16,10.83,26.14l7.51,7.52c1.56,1.56,3.61,2.34,5.66,2.34s4.1-.78,5.66-2.34l7.52-7.52c6.98-6.98,10.83-16.27,10.83-26.14s-3.85-19.16-10.83-26.14Z"/>
      <path class="cls-6" d="M309.66,250.34l-7.52-7.52c-6.98-6.98-16.27-10.83-26.14-10.83s-19.16,3.85-26.14,10.83l-7.52,7.52c-3.12,3.12-3.12,8.19,0,11.31h0s7.52,7.52,7.52,7.52c6.98,6.98,16.27,10.83,26.14,10.83s19.16-3.85,26.14-10.83l7.52-7.52c3.12-3.12,3.12-8.19,0-11.31Z"/>
      <path class="cls-6" d="M237.66,250.34l-7.51-7.51c-6.98-6.98-16.27-10.83-26.14-10.83s-19.16,3.85-26.14,10.83l-7.51,7.52c-3.12,3.12-3.13,8.19,0,11.31,0,0,0,0,0,0l7.51,7.51c6.98,6.98,16.27,10.83,26.14,10.83s19.16-3.85,26.14-10.83l7.51-7.52c3.12-3.12,3.12-8.19,0-11.31,0,0,0,0,0,0Z"/>
      <path class="cls-6" d="M240,288c-4.42,0-8-3.58-8-8v-24h16v24c0,4.42-3.58,8-8,8Z"/>
    </g>
  </g>
</svg>