<?xml version="1.0" encoding="UTF-8"?>
<svg id="Layer_2" data-name="Layer 2" xmlns="http://www.w3.org/2000/svg" viewBox="0 0 496 496">
  <defs>
    <style>
      .cls-1 {
        fill: #f04a4a;
      }

      .cls-2 {
        fill: #565a66;
      }

      .cls-3 {
        fill: #f9aa7d;
      }

      .cls-4 {
        fill: #a32623;
      }

      .cls-5 {
        fill: #dbe8a5;
      }

      .cls-6 {
        fill: #f59092;
      }

      .cls-7 {
        fill: #c4d93e;
      }

      .cls-8 {
        fill: #e56825;
      }

      .cls-9 {
        fill: #ffce55;
      }

      .cls-10 {
        fill: #74c157;
      }

      .cls-11 {
        fill: #f6fbfe;
      }

      .cls-12 {
        fill: #dce1eb;
      }

      .cls-13 {
        fill: #54ba64;
      }

      .cls-14 {
        fill: #f7fafd;
      }

      .cls-15 {
        fill: #f57f30;
      }

      .cls-16 {
        fill: #f6884c;
      }

      .cls-17 {
        fill: #e6312f;
      }

      .cls-18 {
        fill: #e45b25;
      }

      .cls-19 {
        fill: #f8aeb0;
      }

      .cls-20 {
        fill: #eff2fa;
      }

      .cls-21 {
        fill: #b1d469;
      }

      .cls-22 {
        fill: #ee3534;
      }

      .cls-23 {
        fill: #f37121;
      }

      .cls-24 {
        fill: #fcf7bf;
      }

      .cls-25 {
        fill: #c0da73;
      }

      .cls-26 {
        fill: #dde679;
      }

      .cls-27 {
        fill: #f27070;
      }

      .cls-28 {
        fill: #ca2a28;
      }

      .cls-29 {
        fill: #dc3029;
      }

      .cls-30 {
        fill: #f3732c;
      }

      .cls-31 {
        fill: #6abe51;
      }

      .cls-32 {
        fill: #fffdee;
      }

      .cls-33 {
        fill: #fefbda;
      }

      .cls-34 {
        fill: #f79332;
      }

      .cls-35 {
        fill: #fdb745;
      }
    </style>
  </defs>
  <g id="Layer_1-2" data-name="Layer 1">
    <g id="Thai">
      <g>
        <circle class="cls-15" cx="248" cy="248" r="208"/>
        <path class="cls-14" d="M248,0c136.97,0,248,111.03,248,248s-111.03,248-248,248S0,384.97,0,248,111.03,0,248,0Zm208,248c0-114.88-93.12-208-208-208S40,133.12,40,248s93.12,208,208,208,208-93.12,208-208Z"/>
        <path class="cls-18" d="M73.12,296.32c-1.41-3.28-1.45-6.98-.1-10.29-7.16,2.7-10.77,10.69-8.07,17.84,.06,.15,.12,.3,.18,.45,21.44,52.32,54,78.08,78,70.32,6.62-1.5,12.34-5.63,15.86-11.44-2.48,1.45-5.12,2.61-7.86,3.46-24,7.74-56.56-18.02-78-70.34Zm199.59,41.86c1.02-5.55,5.66-9.7,11.29-10.09l.08-.09h-12.08l-15.81-7.53c-.07,.74-.19,1.48-.19,2.25-.03-.83-.12-1.65-.26-2.46l-2.4-1.14c-6.94-3.35-11.84-9.84-13.16-17.42-2.22-.99-4.54-1.75-6.92-2.26l-17.26-3.44v19.12c.39,8.63,5.54,16.33,13.36,20l18.64,8.88h16l8.71-5.82Zm96.01-16.26c.74-11.31,.39-22.67-1.04-33.92-1.59-13.5-4.15-26.87-7.68-40l.08-.8c-18.7-3.7-32.15-20.14-32.08-39.2,.04-25.89-8.76-51.01-24.96-71.2-2.33-2.92-4.14-6.23-5.33-9.77l-25.71-7.03v12.8c0,7.27,2.48,14.33,7.04,20,16.2,20.19,25,45.31,24.96,71.2-.07,19.06,13.38,35.5,32.08,39.2l-.08,.8c3.53,13.13,6.09,26.5,7.68,40,1.43,11.25,1.78,22.61,1.04,33.92-.5,10.53-3.41,20.8-8.5,30.03,5.6-.74,10.92-2.9,15.46-6.27,10.96-8.24,15.68-23.28,17.04-39.76h0Z"/>
        <path class="cls-18" d="M287.2,384.56c-3.87-5.4-6.95-11.33-9.14-17.6-2.53-4.12-4.28-8.66-5.18-13.41-1.22-5.63-6.24-9.63-12-9.55-6.79-.03-12.32,5.45-12.35,12.24,0,.32,0,.64,.03,.96,.83,15.52,5.89,30.52,14.64,43.36,11.38,15.41,29.66,24.19,48.8,23.44,15.6,.32,31.1-2.59,45.52-8.56,8.77-3.82,16.79-9.2,23.65-15.87-14.32,5.87-29.69,8.74-45.17,8.43-19.14,.75-37.42-8.03-48.8-23.44Z"/>
        <path class="cls-8" d="M272,56l27.15,48.86,19.23,5.26-46.38-54.12Z"/>
        <path class="cls-18" d="M200,184c-5.44-.02-10.85-.73-16.1-2.13,0,.71,.1,1.41,.1,2.13-.13,35.35-28.9,63.89-64.24,63.76-30.69-.12-56.98-22-62.65-52.17-11.75,33.34,5.75,69.89,39.08,81.64,33.34,11.75,69.89-5.75,81.64-39.08,2.43-6.89,3.66-14.14,3.64-21.44,0-.71-.09-1.41-.11-2.12,34.05,9.02,68.97-11.28,77.99-45.33,2.43-9.19,2.78-18.8,1.02-28.14-8.97,25.67-33.17,42.86-60.36,42.89Z"/>
        <circle class="cls-35" cx="256" cy="192" r="8"/>
        <circle class="cls-29" cx="280" cy="88" r="8"/>
        <circle class="cls-29" cx="200" cy="224" r="8"/>
        <circle class="cls-29" cx="152" cy="320" r="8"/>
        <circle class="cls-29" cx="312" cy="256" r="8"/>
        <circle class="cls-35" cx="424" cy="160" r="8"/>
        <circle class="cls-29" cx="408" cy="144" r="8"/>
        <circle class="cls-35" cx="200" cy="256" r="8"/>
        <circle class="cls-28" cx="336" cy="272" r="8"/>
        <circle class="cls-35" cx="372" cy="116" r="4"/>
        <circle class="cls-1" cx="292" cy="228" r="4"/>
        <circle class="cls-8" cx="304" cy="72" r="8"/>
        <circle class="cls-4" cx="272" cy="104" r="8"/>
        <circle class="cls-29" cx="292" cy="244" r="4"/>
        <circle class="cls-1" cx="364" cy="100" r="4"/>
        <circle class="cls-1" cx="244" cy="268" r="4"/>
        <circle class="cls-8" cx="228" cy="348" r="4"/>
        <circle class="cls-35" cx="292" cy="268" r="4"/>
        <circle class="cls-29" cx="136" cy="384" r="8"/>
        <circle class="cls-29" cx="116" cy="372" r="4"/>
        <circle class="cls-35" cx="116" cy="396" r="4"/>
        <circle class="cls-35" cx="268" cy="420" r="4"/>
        <circle class="cls-35" cx="220" cy="332" r="4"/>
        <circle class="cls-35" cx="188" cy="244" r="4"/>
        <circle class="cls-35" cx="292" cy="204" r="4"/>
        <circle class="cls-35" cx="436" cy="188" r="4"/>
        <circle class="cls-8" cx="212" cy="268" r="4"/>
        <circle class="cls-8" cx="180" cy="340" r="4"/>
        <circle class="cls-1" cx="156" cy="340" r="4"/>
        <circle class="cls-1" cx="396" cy="132" r="4"/>
        <circle class="cls-29" cx="188" cy="236" r="4"/>
        <circle class="cls-29" cx="260" cy="260" r="4"/>
        <circle class="cls-8" cx="268" cy="164" r="4"/>
        <circle class="cls-8" cx="308" cy="324" r="4"/>
        <circle class="cls-8" cx="308" cy="340" r="4"/>
        <circle class="cls-28" cx="336" cy="296" r="16"/>
        <circle class="cls-28" cx="432" cy="208" r="8"/>
        <circle class="cls-28" cx="416" cy="176" r="8"/>
        <circle class="cls-28" cx="432" cy="232" r="16"/>
        <circle class="cls-4" cx="216" cy="424" r="16"/>
        <circle class="cls-28" cx="124" cy="108" r="12"/>
        <circle class="cls-4" cx="132" cy="300" r="12"/>
        <circle class="cls-4" cx="328" cy="424" r="8"/>
        <circle class="cls-29" cx="168" cy="416" r="8"/>
        <circle class="cls-4" cx="176" cy="360" r="8"/>
        <circle class="cls-4" cx="252" cy="436" r="12"/>
        <circle class="cls-4" cx="264" cy="64" r="16"/>
        <circle class="cls-4" cx="304" cy="424" r="16"/>
        <circle class="cls-4" cx="232" cy="64" r="16"/>
        <path class="cls-23" d="M280,306.72v21.28h-8l-18.64-8.88c-7.82-3.67-12.97-11.37-13.36-20v-19.12l17.28,3.44c12.13,1.4,21.61,11.12,22.72,23.28Zm21.28,12.4l-13.28,8.88h-8v-21.28c.04-10.99,7.51-20.57,18.16-23.28l13.84-3.44v19.12c.01,8.04-4.01,15.56-10.72,20Z"/>
        <path class="cls-35" d="M280,322.72v-16c-1.11-12.16-10.59-21.88-22.72-23.28l-17.28-3.44v16l17.28,3.44c12.13,1.4,21.61,11.12,22.72,23.28Zm18.16-39.28c-10.65,2.71-18.12,12.29-18.16,23.28v16c.04-10.99,7.51-20.57,18.16-23.28l13.84-3.44v-16l-13.84,3.44Z"/>
        <path class="cls-34" d="M379.92,137.92c9.64,8.69,17.38,19.29,22.72,31.12l21.36,46.96-40,32h-16c-2.66,.02-5.32-.25-7.92-.8-18.7-3.7-32.15-20.14-32.08-39.2,.04-25.89-8.76-51.01-24.96-71.2-4.56-5.67-7.04-12.73-7.04-20v-12.8l44.48,12.16c14.69,4.01,28.22,11.47,39.44,21.76Z"/>
        <path class="cls-30" d="M404.5,214.01c-8.09,6.47-18.14,9.99-28.5,9.99-2.66,.02-5.32-.25-7.92-.8-18.7-3.7-32.15-20.14-32.08-39.2,.04-25.84-8.73-50.92-24.88-71.1-1.39-1.79-2.6-3.72-3.6-5.75l-11.52-3.15v12.8c0,7.27,2.48,14.33,7.04,20,16.2,20.19,25,45.31,24.96,71.2-.07,19.06,13.38,35.5,32.08,39.2,2.6,.55,5.26,.82,7.92,.8h16l40-32-5.87-12.9-13.63,10.91Z"/>
        <path class="cls-9" d="M311.12,112.9c1.75,2.19,3.38,4.46,4.96,6.77l16.4,4.49c14.69,4.01,28.22,11.47,39.44,21.76,9.64,8.69,17.38,19.29,22.72,31.12l14.96,32.88,8.53-6.82,5.87,12.9-21.36-46.96c-5.34-11.83-13.08-22.43-22.72-31.12-11.22-10.29-24.75-17.75-39.44-21.76l-44.48-12.16,11.52,3.15c1,2.03,2.21,3.96,3.6,5.75Z"/>
        <path class="cls-20" d="M351.68,361.68c-.96,6.4-2.16,30.16,29.84,37.76-14.42,5.97-29.92,8.88-45.52,8.56-19.14,.75-37.42-8.03-48.8-23.44l.8-.56c-.56-12.59,9.19-23.26,21.78-23.82,.15,0,.31-.01,.46-.02,7.46,5.44,16.54,8.2,25.76,7.84,5.68-.72,11.08-2.9,15.68-6.32Zm80.32-73.68v24c.22,16.52-3.23,32.89-10.08,47.92-24.33,.97-46.23-14.67-53.2-38,.74-11.31,.39-22.67-1.04-33.92h.32c8,16,16,16,32,16,17.28,0,31.28-10.24,31.92-23.04,.08,2.32,.08,4.64,.08,7.04Z"/>
        <path class="cls-3" d="M296.88,337.52c1.51,8.94,6.27,17,13.36,22.64-12.6,.31-22.57,10.78-22.26,23.38,0,.15,0,.31,.02,.46l-.8,.56c-8.75-12.84-13.81-27.84-14.64-43.36-.5-6.77,4.59-12.67,11.36-13.17,.32-.02,.64-.03,.96-.03,5.75-.08,10.77,3.9,12,9.52Zm125.04,22.4c-8.12,17.71-22.51,31.79-40.4,39.52-32-7.6-30.8-31.36-29.84-37.76,10.96-8.24,15.68-23.28,17.04-39.76,6.97,23.33,28.87,38.97,53.2,38h0Zm-61.92-111.92l.08-.8c2.6,.55,5.26,.82,7.92,.8h16l40-32c4.87,21.32,7.52,43.09,7.92,64.96-.64,12.8-14.64,23.04-31.92,23.04-16,0-24,0-32-16h-.32c-1.59-13.5-4.15-26.87-7.68-40Z"/>
        <circle class="cls-5" cx="200" cy="120" r="8"/>
        <circle class="cls-5" cx="120" cy="184" r="8"/>
        <path class="cls-25" d="M264,120c0,35.35-28.65,64-64,64-5.42-.01-10.82-.69-16.08-2-.29-12.38-4.28-24.38-11.44-34.48-8.76-12.75-21.88-21.85-36.88-25.6l.4-1.92c0-35.35,28.65-64,64-64s64,28.65,64,64Zm-64,8c4.42,0,8-3.58,8-8s-3.58-8-8-8-8,3.58-8,8,3.58,8,8,8Z"/>
        <path class="cls-25" d="M120,192c4.42,0,8-3.58,8-8s-3.58-8-8-8-8,3.58-8,8,3.58,8,8,8Zm63.92-10c.07,.66,.09,1.33,.08,2,0,35.35-28.65,64-64,64s-64-28.65-64-64,28.65-64,64-64c5.26-.02,10.5,.63,15.6,1.92,15,3.75,28.12,12.85,36.88,25.6,7.16,10.1,11.15,22.1,11.44,34.48h0Z"/>
        <path class="cls-9" d="M296,40l83.92,97.92c-11.22-10.29-24.75-17.75-39.44-21.76l-2.56-.72-41.92-75.44Z"/>
        <circle class="cls-32" cx="200" cy="120" r="8"/>
        <path class="cls-32" d="M200,128c4.42,0,8-3.58,8-8s-3.58-8-8-8-8,3.58-8,8,3.58,8,8,8Zm63.92-10c.07,.66,.09,1.33,.08,2,0,35.35-28.65,64-64,64s-64-28.65-64-64,28.65-64,64-64c5.26-.02,10.5,.63,15.6,1.92,15,3.75,28.12,12.85,36.88,25.6,7.16,10.1,11.15,22.1,11.44,34.48h0Z"/>
        <path class="cls-21" d="M263.92,118c-.29-12.38-4.28-24.38-11.44-34.48-8.76-12.75-21.88-21.85-36.88-25.6-5.1-1.29-10.34-1.94-15.6-1.92-35.35,0-64,28.65-64,64s28.65,64,64,64,64-28.65,64-64c.01-.67-.01-1.34-.08-2Zm-63.92,58c-30.93,0-56-25.07-56-56s25.07-56,56-56,56,25.07,56,56-25.07,56-56,56Z"/>
        <path class="cls-26" d="M194.35,125.65l-27.81,27.81c-3.13,3.07-3.19,8.1-.12,11.23,.27,.28,.56,.53,.87,.77,7,5.06,15.09,8.41,23.62,9.8,4.38,.6,8.41-2.46,9.01-6.84,.05-.39,.08-.77,.07-1.16v-39.26c-2.12,0-4.15-.85-5.65-2.35Z"/>
        <path class="cls-26" d="M200,128v39.3c-.04,4.42,3.51,8.03,7.93,8.07,.39,0,.78-.02,1.16-.07,8.53-1.39,16.61-4.74,23.62-9.8,3.49-2.65,4.17-7.64,1.52-11.13-.23-.31-.49-.6-.77-.87l-27.81-27.81c-1.5,1.49-3.53,2.32-5.65,2.3Z"/>
        <path class="cls-26" d="M255.26,129.09c.6-4.38-2.46-8.41-6.84-9.01-.39-.05-.77-.08-1.16-.07h-39.26c0,2.12-.85,4.15-2.35,5.65l27.81,27.81c3.07,3.13,8.1,3.19,11.23,.12,.28-.27,.53-.56,.77-.87,5.06-7,8.42-15.09,9.81-23.62Zm-63.26-9.09h-39.3c-4.42-.04-8.03,3.51-8.07,7.93,0,.39,.02,.78,.07,1.16,1.39,8.53,4.74,16.61,9.8,23.62,2.65,3.49,7.64,4.17,11.13,1.52,.31-.23,.6-.49,.87-.77l27.81-27.81c-1.48-1.5-2.31-3.53-2.3-5.65Zm13.65-5.65l27.81-27.81c3.13-3.07,3.19-8.1,.12-11.23-.27-.28-.56-.53-.87-.77-7-5.06-15.09-8.41-23.62-9.8-4.38-.6-8.41,2.46-9.01,6.84-.05,.37-.08,.74-.07,1.11v39.3c2.12,0,4.15,.85,5.65,2.35Z"/>
        <path class="cls-26" d="M194.35,114.35l-27.81-27.81c-3.07-3.13-8.1-3.19-11.23-.12-.28,.27-.53,.56-.77,.87-5.06,7-8.41,15.09-9.8,23.62-.6,4.38,2.46,8.41,6.84,9.01,.39,.05,.77,.08,1.16,.07h39.26c0-2.12,.85-4.15,2.35-5.65Zm13.65,5.65h39.3c4.42,.04,8.03-3.51,8.07-7.93,0-.39-.02-.78-.07-1.16-1.39-8.53-4.74-16.61-9.8-23.62-2.65-3.49-7.64-4.17-11.13-1.52-.31,.23-.6,.49-.87,.77l-27.81,27.81c1.49,1.5,2.32,3.53,2.3,5.65Z"/>
        <path class="cls-26" d="M200,112v-39.3c.02-4.42-3.55-8.02-7.97-8.03-.38,0-.75,.02-1.12,.07-8.53,1.39-16.61,4.74-23.62,9.8-3.49,2.65-4.17,7.64-1.52,11.13,.23,.31,.49,.6,.77,.87l27.81,27.81c1.5-1.5,3.53-2.34,5.65-2.34Z"/>
        <path class="cls-33" d="M197,66.46v45.54c.02,.2,.06,.39,.12,.58,1.84-.78,3.92-.78,5.76,0,.06-.19,.1-.39,.12-.58v-45.54c-1.89,1.52-2.99,3.81-3,6.23-.01-2.42-1.11-4.71-3-6.23h0Zm-32.74,13.54c-.26,2.41,.58,4.81,2.29,6.54-1.73-1.7-4.13-2.54-6.54-2.28l32.22,32.22c.15,.14,.37,.1,.54,.22,.39-.87,.93-1.66,1.6-2.34,.68-.67,1.47-1.21,2.34-1.6-.11-.18-.07-.39-.22-.54l-32.22-32.21Zm69.2,6.54c1.71-1.73,2.55-4.13,2.29-6.54l-32.22,32.22c-.14,.15-.1,.37-.22,.54,.87,.39,1.66,.93,2.34,1.6l27.81-27.82Z"/>
        <path class="cls-33" d="M207.78,116.48l32.22-32.22c-2.41-.26-4.81,.58-6.54,2.29l-27.81,27.81c.67,.68,1.21,1.48,1.6,2.34,.15-.11,.37-.07,.52-.22h0Zm-15.78,6.52c.2-.02,.39-.06,.58-.12-.78-1.84-.78-3.92,0-5.76-.19-.06-.39-.1-.58-.12h-45.54c1.52,1.89,3.81,2.99,6.23,3-2.42,.01-4.71,1.11-6.23,3h45.54Zm.8,.3c-.17,.11-.38,.07-.54,.22l-32.26,32.22c2.41,.26,4.81-.58,6.54-2.29-1.7,1.72-2.54,4.12-2.29,6.54l32.22-32.22c.14-.15,.1-.37,.22-.54-1.77-.76-3.18-2.16-3.94-3.93h.05Zm7.2,4.7c-.99-.01-1.97-.21-2.88-.58-.06,.19-.1,.39-.12,.58v45.54c1.89-1.52,2.99-3.81,3-6.23,.01,2.42,1.11,4.71,3,6.23v-45.54c-.02-.2-.06-.39-.12-.58-.91,.37-1.89,.57-2.88,.58Zm5.65-2.35c-.68,.67-1.47,1.21-2.34,1.6,.11,.18,.07,.39,.22,.54l32.22,32.21c.26-2.41-.58-4.81-2.29-6.54l-27.81-27.82Z"/>
        <path class="cls-33" d="M240,155.74l-32.22-32.22c-.15-.14-.37-.1-.54-.22-.39,.87-.93,1.66-1.6,2.34l27.81,27.81c1.73,1.71,4.14,2.55,6.55,2.29h0Zm13.54-38.74h-45.54c-.2,.02-.39,.06-.58,.12,.78,1.84,.78,3.92,0,5.76,.19,.06,.39,.1,.58,.12h45.54c-1.52-1.89-3.81-2.99-6.23-3,2.42-.01,4.71-1.11,6.23-3Z"/>
        <g>
          <ellipse class="cls-24" cx="176.93" cy="157.92" rx="4.59" ry="3.3" transform="translate(-59.84 171.36) rotate(-45)"/>
          <ellipse class="cls-24" cx="208.9" cy="93.93" rx="4.59" ry="3.3" transform="translate(-5.24 175.23) rotate(-45)"/>
          <ellipse class="cls-24" cx="240.97" cy="134" rx="4.59" ry="3.3"/>
          <ellipse class="cls-24" cx="240.9" cy="101.92" rx="4.59" ry="3.3" transform="translate(-1.51 200.19) rotate(-45)"/>
          <ellipse class="cls-24" cx="224.9" cy="133.92" rx="3.3" ry="4.59" transform="translate(-28.82 198.25) rotate(-45)"/>
          <ellipse class="cls-24" cx="208.97" cy="158" rx="3.3" ry="4.59"/>
          <ellipse class="cls-24" cx="184.97" cy="150" rx="3.3" ry="4.59"/>
          <ellipse class="cls-24" cx="168.97" cy="134" rx="4.59" ry="3.3"/>
          <ellipse class="cls-24" cx="168.97" cy="102" rx="4.59" ry="3.3"/>
          <ellipse class="cls-24" cx="184.97" cy="166" rx="3.3" ry="4.59"/>
          <ellipse class="cls-24" cx="216.91" cy="149.92" rx="3.3" ry="4.59" transform="translate(-42.48 197.29) rotate(-45)"/>
          <ellipse class="cls-24" cx="216.97" cy="78" rx="3.3" ry="4.59"/>
          <ellipse class="cls-24" cx="184.97" cy="86" rx="3.3" ry="4.59"/>
          <ellipse class="cls-24" cx="224.97" cy="110" rx="4.59" ry="3.3"/>
          <ellipse class="cls-24" cx="160.97" cy="110" rx="4.59" ry="3.3"/>
          <ellipse class="cls-24" cx="192.97" cy="78" rx="3.3" ry="4.59"/>
          <ellipse class="cls-24" cx="152.97" cy="134" rx="4.59" ry="3.3"/>
        </g>
        <path class="cls-3" d="M336,384c6.29,.06,12.5-1.35,18.15-4.1-2.52-5.72-3.37-12.03-2.47-18.22-4.6,3.42-10,5.6-15.68,6.32-9.22,.36-18.3-2.4-25.76-7.84-5.35,.49-10.45,2.53-14.66,5.88,9.88,12.03,24.86,18.69,40.42,17.96Zm49.6-80.75c-8.17-1.56-14.89-7.38-17.6-15.25h-.32c1.43,11.25,1.78,22.61,1.04,33.92,2.56,7.44,6.51,14.33,11.64,20.3,3.22-12.75,4.98-25.82,5.24-38.97Z"/>
        <path class="cls-16" d="M310.24,360.16c-7.09-5.64-11.85-13.7-13.36-22.64-1.46-6.55-7.95-10.67-14.49-9.22-.56,.13-1.12,.29-1.66,.5,1.52,13.53,6.65,26.4,14.86,37.26,4.2-3.35,9.3-5.4,14.66-5.9h0Zm43.91,19.74c13.72-6.73,21.71-21.14,26.21-37.68-5.13-5.97-9.08-12.86-11.64-20.3-1.36,16.48-6.08,31.52-17.04,39.76-.9,6.18-.04,12.5,2.47,18.22h0Zm31.45-76.65c.09-2.94,.15-5.82,.14-8.57,.03-19.14,11.47-36.41,29.08-43.9l14.29-6.12c-1.19-9.64-2.9-19.2-5.11-28.66l-40,32h-16c-2.66,.02-5.32-.25-7.92-.8l-.08,.8c3.53,13.13,6.09,26.5,7.68,40h.32c2.71,7.87,9.43,13.68,17.6,15.25Z"/>
        <circle class="cls-32" cx="120" cy="184" r="8"/>
        <path class="cls-32" d="M120,192c4.42,0,8-3.58,8-8s-3.58-8-8-8-8,3.58-8,8,3.58,8,8,8Zm63.92-10c.07,.66,.09,1.33,.08,2,0,35.35-28.65,64-64,64s-64-28.65-64-64,28.65-64,64-64c5.26-.02,10.5,.63,15.6,1.92,15,3.75,28.12,12.85,36.88,25.6,7.16,10.1,11.15,22.1,11.44,34.48h0Z"/>
        <path class="cls-21" d="M183.92,182c-.29-12.38-4.28-24.38-11.44-34.48-8.76-12.75-21.88-21.85-36.88-25.6-5.1-1.29-10.34-1.94-15.6-1.92-35.35,0-64,28.65-64,64s28.65,64,64,64,64-28.65,64-64c.01-.67-.01-1.34-.08-2Zm-63.92,58c-30.93,0-56-25.07-56-56s25.07-56,56-56,56,25.07,56,56-25.07,56-56,56Z"/>
        <path class="cls-26" d="M114.35,189.65l-27.81,27.81c-3.13,3.07-3.19,8.1-.12,11.23,.27,.28,.56,.53,.87,.77,7,5.06,15.09,8.41,23.62,9.8,4.38,.6,8.41-2.46,9.01-6.84,.05-.39,.08-.77,.07-1.16v-39.26c-2.12,0-4.15-.85-5.65-2.35Z"/>
        <path class="cls-26" d="M120,192v39.3c-.04,4.42,3.51,8.03,7.93,8.07,.39,0,.78-.02,1.16-.07,8.53-1.39,16.61-4.74,23.62-9.8,3.49-2.65,4.17-7.64,1.52-11.13-.23-.31-.49-.6-.77-.87l-27.81-27.81c-1.5,1.49-3.53,2.32-5.65,2.3Z"/>
        <path class="cls-26" d="M175.26,193.09c.6-4.38-2.46-8.41-6.84-9.01-.39-.05-.77-.08-1.16-.07h-39.26c0,2.12-.85,4.15-2.35,5.65l27.81,27.81c3.07,3.13,8.1,3.19,11.23,.12,.28-.27,.53-.56,.77-.87,5.06-7,8.42-15.09,9.81-23.62h0Zm-63.26-9.09h-39.3c-4.42-.02-8.02,3.55-8.03,7.97,0,.38,.02,.75,.07,1.12,1.39,8.53,4.74,16.61,9.8,23.62,2.65,3.49,7.64,4.17,11.13,1.52,.31-.23,.6-.49,.87-.77l27.81-27.81c-1.5-1.5-2.34-3.53-2.34-5.65Zm13.65-5.65l27.81-27.81c3.13-3.07,3.19-8.1,.12-11.23-.27-.28-.56-.53-.87-.77-7-5.06-15.09-8.41-23.62-9.8-4.38-.6-8.41,2.46-9.01,6.84-.05,.39-.08,.77-.07,1.16v39.26c2.12,0,4.15,.85,5.65,2.35Z"/>
        <path class="cls-26" d="M114.35,178.35l-27.81-27.81c-3.07-3.13-8.1-3.19-11.23-.12-.28,.27-.53,.56-.77,.87-5.06,7-8.41,15.09-9.8,23.62-.6,4.38,2.46,8.41,6.84,9.01,.37,.05,.74,.08,1.11,.07h39.3c0-2.12,.85-4.15,2.35-5.65Zm13.65,5.65h39.3c4.42,.04,8.03-3.51,8.07-7.93,0-.39-.02-.78-.07-1.16-1.39-8.53-4.74-16.61-9.8-23.62-2.65-3.49-7.64-4.17-11.13-1.52-.31,.23-.6,.49-.87,.77l-27.81,27.81c1.49,1.5,2.32,3.53,2.3,5.65Z"/>
        <path class="cls-26" d="M120,176v-39.3c.04-4.42-3.51-8.03-7.93-8.07-.39,0-.78,.02-1.16,.07-8.53,1.39-16.61,4.74-23.62,9.8-3.49,2.65-4.17,7.64-1.52,11.13,.23,.31,.49,.6,.77,.87l27.81,27.81c1.5-1.48,3.53-2.31,5.65-2.3Z"/>
        <path class="cls-33" d="M117,130.46v45.54c.02,.2,.06,.39,.12,.58,1.84-.78,3.92-.78,5.76,0,.06-.19,.1-.39,.12-.58v-45.54c-1.89,1.52-2.99,3.81-3,6.23-.01-2.42-1.11-4.71-3-6.23Zm-32.74,13.54c-.26,2.41,.58,4.81,2.29,6.54-1.73-1.7-4.13-2.54-6.54-2.28l32.22,32.22c.15,.14,.37,.1,.54,.22,.39-.87,.93-1.66,1.6-2.34,.68-.67,1.47-1.21,2.34-1.6-.11-.18-.07-.39-.22-.54l-32.22-32.21Zm69.2,6.54c1.71-1.73,2.55-4.13,2.29-6.54l-32.22,32.22c-.14,.15-.1,.37-.22,.54,.87,.39,1.66,.93,2.34,1.6l27.81-27.82Z"/>
        <path class="cls-33" d="M127.78,180.48l32.22-32.22c-2.41-.26-4.81,.58-6.54,2.29l-27.81,27.81c.67,.68,1.21,1.48,1.6,2.34,.15-.11,.37-.07,.52-.22h0Zm-15.78,6.52c.2-.02,.39-.06,.58-.12-.78-1.84-.78-3.92,0-5.76-.19-.06-.39-.1-.58-.12h-45.54c1.52,1.89,3.81,2.99,6.23,3-2.42,.01-4.71,1.11-6.23,3h45.54Zm.8,.3c-.17,.11-.38,.07-.54,.22l-32.26,32.22c2.41,.26,4.81-.58,6.54-2.29-1.7,1.72-2.54,4.12-2.29,6.54l32.22-32.22c.14-.15,.1-.37,.22-.54-1.77-.76-3.18-2.16-3.94-3.93h.05Zm7.2,4.7c-.99-.01-1.97-.21-2.88-.58-.06,.19-.1,.39-.12,.58v45.54c1.89-1.52,2.99-3.81,3-6.23,.01,2.42,1.11,4.71,3,6.23v-45.54c-.02-.2-.06-.39-.12-.58-.91,.37-1.89,.57-2.88,.58Zm5.65-2.35c-.68,.67-1.47,1.21-2.34,1.6,.11,.18,.07,.39,.22,.54l32.22,32.21c.26-2.41-.58-4.81-2.29-6.54l-27.81-27.82Z"/>
        <path class="cls-33" d="M160,219.74l-32.22-32.22c-.15-.14-.37-.1-.54-.22-.39,.87-.93,1.66-1.6,2.34l27.81,27.81c1.73,1.71,4.14,2.55,6.55,2.29h0Zm13.54-38.74h-45.54c-.2,.02-.39,.06-.58,.12,.78,1.84,.78,3.92,0,5.76,.19,.06,.39,.1,.58,.12h45.54c-1.52-1.89-3.81-2.99-6.23-3,2.42-.01,4.71-1.11,6.23-3h0Z"/>
        <ellipse class="cls-24" cx="96.96" cy="221.9" rx="4.59" ry="3.3" transform="translate(-128.51 133.56) rotate(-45)"/>
        <ellipse class="cls-24" cx="128.94" cy="157.93" rx="4.59" ry="3.3" transform="translate(-73.91 137.43) rotate(-45)"/>
        <ellipse class="cls-24" cx="160.97" cy="198" rx="4.59" ry="3.3"/>
        <ellipse class="cls-24" cx="160.93" cy="165.92" rx="4.59" ry="3.3" transform="translate(-70.18 162.39) rotate(-45)"/>
        <ellipse class="cls-24" cx="144.94" cy="197.91" rx="3.3" ry="4.59" transform="translate(-97.49 160.46) rotate(-45)"/>
        <ellipse class="cls-24" cx="128.97" cy="222" rx="3.3" ry="4.59"/>
        <ellipse class="cls-24" cx="104.97" cy="214" rx="3.3" ry="4.59"/>
        <ellipse class="cls-24" cx="88.97" cy="198" rx="4.59" ry="3.3"/>
        <ellipse class="cls-24" cx="88.97" cy="166" rx="4.59" ry="3.3"/>
        <ellipse class="cls-24" cx="104.97" cy="230" rx="3.3" ry="4.59"/>
        <ellipse class="cls-24" cx="136.94" cy="213.9" rx="3.3" ry="4.59" transform="translate(-111.14 159.48) rotate(-45)"/>
        <ellipse class="cls-24" cx="136.97" cy="142" rx="3.3" ry="4.59"/>
        <ellipse class="cls-24" cx="104.97" cy="150" rx="3.3" ry="4.59"/>
        <ellipse class="cls-24" cx="144.97" cy="174" rx="4.59" ry="3.3"/>
        <ellipse class="cls-24" cx="80.97" cy="174" rx="4.59" ry="3.3"/>
        <ellipse class="cls-24" cx="112.97" cy="142" rx="3.3" ry="4.59"/>
        <ellipse class="cls-24" cx="72.97" cy="198" rx="4.59" ry="3.3"/>
        <path class="cls-10" d="M144,120c.02-2.95,.27-5.89,.75-8.8,0-.1-.04-.2,0-.31,.05-.32,.15-.63,.21-.95,.25-1.34,.55-2.66,.89-3.96,.15-.57,.26-1.16,.42-1.72-2.89,.27-5.76,.75-8.58,1.42-1.1,4.7-1.66,9.5-1.68,14.33,0,.72,.08,1.42,.1,2.13,2.77,.7,5.49,1.59,8.14,2.66-.15-1.59-.23-3.19-.24-4.78Zm70,54.16c-1.32,.35-2.66,.65-4,.9-.32,.06-.63,.16-.95,.21h-.31c-5.81,1-11.74,1-17.55,0-.1,0-.2,.04-.31,0-.32-.05-.63-.15-.95-.21-1.34-.25-2.68-.55-4-.9-.67-.17-1.34-.31-2-.51l-.95-.27c.47,2.81,.75,5.65,.85,8.5,9.94,2.66,20.38,2.82,30.4,.46,.67-2.83,1.15-5.7,1.42-8.59-.44,.16-1.06,.27-1.64,.42h0Z"/>
        <path class="cls-7" d="M197,128c.02-.2,.06-.39,.12-.58-.14-.05-.29-.12-.42-.18-.11,.18-.07,.39-.22,.54l-22.29,22.29c4.45,7.09,7.46,14.99,8.85,23.25,.32,.1,.63,.24,.96,.34,.66,.2,1.33,.34,2,.51,1.32,.35,2.66,.65,4,.9,.42,.07,.84,.12,1.26,.19,2.08,.25,4.17-.37,5.78-1.71l-.04-45.54Zm19,40c0-13.93-4.56-27.47-13-38.55v44.09c1.61,1.34,3.7,1.96,5.78,1.71,.42-.07,.85-.12,1.26-.19,1.34-.25,2.66-.55,4-.9,.58-.14,1.17-.28,1.74-.44,.14-1.89,.22-3.79,.22-5.72Zm-23.2-44.7c-.06-.14-.12-.28-.18-.42-.19,.06-.39,.1-.58,.12h-45.58c-.53,.66-.94,1.39-1.23,2.18,10.05,4.34,18.81,11.18,25.47,19.86l21.52-21.53c.15-.14,.37-.1,.58-.22h0Zm-2.25-6.3c-11.08-8.44-24.62-13-38.55-13-1.93,0-3.83,.1-5.72,.28-.17,.56-.3,1.14-.45,1.72-.34,1.3-.64,2.62-.89,3.96-.07,.42-.12,.84-.19,1.26-.25,2.08,.37,4.17,1.71,5.78h44.09Z"/>
        <path class="cls-26" d="M192.34,118.34c-.17,.54-.29,1.1-.34,1.66,.05-.57,.16-1.12,.34-1.66-.58-.47-1.19-.89-1.78-1.34h-44.09c-1.34-1.61-1.96-3.7-1.71-5.78-.48,2.9-.73,5.84-.75,8.78,0,1.6,.1,3.2,.24,4.8,.33,.14,.66,.26,.99,.4,.29-.79,.71-1.53,1.23-2.18h45.54c.2-.02,.39-.06,.58-.12,.77,2.1,2.43,3.76,4.54,4.54,.92,.37,1.89,.56,2.88,.57,.57-.05,1.12-.16,1.66-.34-2.78-3.42-5.91-6.55-9.33-9.33Z"/>
        <path class="cls-26" d="M192.22,123.52l-21.52,21.53c.62,.8,1.23,1.6,1.82,2.4s1.13,1.71,1.67,2.58l22.29-22.29c.14-.15,.1-.37,.22-.54-.87-.39-1.66-.93-2.34-1.6-.67-.68-1.21-1.48-1.6-2.34-.16,.16-.38,.12-.53,.26h0Zm10.78,50.02v-44.09c-.45-.59-.86-1.21-1.34-1.78-.54,.18-1.1,.29-1.66,.34-.99-.01-1.97-.21-2.88-.58-.06,.19-.1,.39-.12,.58v45.54c-1.61,1.34-3.7,1.96-5.78,1.71,5.81,1,11.74,1,17.55,0-2.08,.25-4.17-.37-5.78-1.71Z"/>
        <path class="cls-28" d="M214.08,393.92c16.48,16.56,41.44,18.64,49.04,13.36-20.72,19.92-50.8,22.4-67.84,5.44s-14.48-47.12,5.44-67.84c-5.28,7.6-3.2,32.56,13.36,49.04Zm17.04-82.64c-20.72,19.92-50.8,22.4-67.84,5.44s-14.48-47.12,5.44-67.84c-5.28,7.6-3.2,32.56,13.36,49.04s41.44,18.64,49.04,13.36Z"/>
        <path class="cls-27" d="M263.12,407.28c-7.6,5.28-32.56,3.2-49.04-13.36s-18.64-41.44-13.36-49.04c.25-.31,.51-.61,.8-.88l62.48,62.48c-.27,.29-.57,.55-.88,.8Zm-93.6-159.28l62.48,62.48c-.27,.29-.57,.55-.88,.8-7.6,5.28-32.56,3.2-49.04-13.36s-18.64-41.44-13.36-49.04c.25-.31,.51-.61,.8-.88h0Z"/>
        <path class="cls-28" d="M263.12,407.28c-20.72,19.92-50.8,22.4-67.84,5.44s-14.48-47.12,5.44-67.84c-5.28,7.6-3.2,32.56,13.36,49.04s41.44,18.64,49.04,13.36Z"/>
        <path class="cls-17" d="M206.08,401.92c11.36,11.43,27.3,17.08,43.32,15.34,5.01-2.69,9.62-6.05,13.72-9.98-7.6,5.28-32.56,3.2-49.04-13.36s-18.64-41.44-13.36-49.04c-3.94,4.1-7.3,8.71-9.98,13.72-1.73,16.02,3.91,31.96,15.34,43.32h0Z"/>
        <path class="cls-27" d="M201.52,344l62.48,62.48c-.27,.29-.57,.55-.88,.8-7.6,5.28-32.56,3.2-49.04-13.36s-18.64-41.44-13.36-49.04c.25-.31,.51-.61,.8-.88h0Z"/>
        <path class="cls-6" d="M206.26,348.74l-4.74-4.74c-.29,.27-.55,.57-.8,.88-5.28,7.6-3.2,32.56,13.36,49.04s41.44,18.64,49.04,13.36c.31-.25,.61-.51,.88-.8l-4.74-4.74c-29.04-.56-52.45-23.97-53.01-53.01h0Z"/>
        <ellipse class="cls-19" cx="232.97" cy="382" rx="4.59" ry="3.3"/>
        <ellipse class="cls-19" cx="224.93" cy="373.84" rx="3.3" ry="4.59" transform="translate(-198.46 268.55) rotate(-45)"/>
        <path class="cls-22" d="M119.12,321.2c7.68,18.88,33.04,37.12,48.88,32-3.23,6.86-9.47,11.83-16.88,13.44-24,7.76-56.56-18-78-70.32-2.94-7.29,.59-15.57,7.87-18.51,.72-.29,1.46-.52,2.21-.69l7.84-2.56c8.44-3.25,17.94,.69,21.6,8.96,3.13,7.51,3.39,15.91,.72,23.6,0,0,1.12,2.72,5.76,14.08h0Z"/>
        <path class="cls-28" d="M81.12,288.32c-1.41-3.28-1.45-6.98-.1-10.29-7.16,2.7-10.77,10.69-8.07,17.84,.06,.15,.12,.3,.18,.45,21.44,52.32,54,78.08,78,70.32,6.62-1.5,12.34-5.63,15.86-11.44-2.48,1.45-5.12,2.61-7.86,3.46-24,7.74-56.56-18.02-78-70.34Z"/>
        <path class="cls-28" d="M91.04,274.56c1.34-.41,2.72-.68,4.12-.8l-5.22-12.74c-1.57-4.13-6.19-6.2-10.32-4.63-4.13,1.57-6.2,6.19-4.63,10.32,.05,.12,.09,.24,.14,.35l4.72,11.55c1.07-.59,2.19-1.08,3.34-1.46l7.84-2.6Z"/>
        <path class="cls-27" d="M110.14,284.44c-.34-.51-.77-.95-1.26-1.32-1.54-1.34-3.35-2.32-5.31-2.86-2.02-.55-4.17-.26-5.98,.8-.48,.3-.88,.7-1.18,1.18-.25,.48-.39,1-.41,1.54-.03,1.96,.65,3.86,1.91,5.36,1.31,1.55,2.86,2.88,4.58,3.94,2.1,1.38,7.82,5.06,9.29,1.18,.33-3.36-.24-6.75-1.66-9.82h0Z"/>
        <path class="cls-28" d="M231.12,311.28c-20.72,19.92-50.8,22.4-67.84,5.44s-14.48-47.12,5.44-67.84c-5.28,7.6-3.2,32.56,13.36,49.04s41.44,18.64,49.04,13.36Z"/>
        <path class="cls-17" d="M174.08,305.92c11.36,11.43,27.3,17.08,43.32,15.34,5.01-2.69,9.62-6.05,13.72-9.98-7.6,5.28-32.56,3.2-49.04-13.36s-18.64-41.44-13.36-49.04c-3.94,4.1-7.3,8.71-9.98,13.72-1.73,16.02,3.91,31.96,15.34,43.32h0Z"/>
        <path class="cls-27" d="M169.52,248l62.48,62.48c-.27,.29-.57,.55-.88,.8-7.6,5.28-32.56,3.2-49.04-13.36s-18.64-41.44-13.36-49.04c.25-.31,.51-.61,.8-.88h0Z"/>
        <path class="cls-6" d="M174.26,252.74l-4.74-4.74c-.29,.27-.55,.57-.8,.88-5.28,7.6-3.2,32.56,13.36,49.04s41.44,18.64,49.04,13.36c.31-.25,.61-.51,.88-.8l-4.74-4.74c-29.04-.56-52.45-23.97-53.01-53.01h0Z"/>
        <ellipse class="cls-19" cx="200.97" cy="286" rx="4.59" ry="3.3"/>
        <ellipse class="cls-19" cx="192.94" cy="277.87" rx="3.3" ry="4.59" transform="translate(-139.98 217.81) rotate(-45)"/>
        <path class="cls-13" d="M280,208c-12.52-.72-24.55,4.93-32,15.02-7.45-10.09-19.48-15.74-32-15.02-4.42,0-8,3.58-8,8-.81,21.29,15.8,39.19,37.08,40,.97,.04,1.95,.04,2.92,0,21.29,.81,39.19-15.8,40-37.08,.04-.97,.04-1.95,0-2.92,0-4.42-3.58-8-8-8Zm-24,39.2c-5.27,1.13-10.73,1.13-16,0-23.91-4.9-24-31.2-24-31.2,11.36-.85,22.15,5.09,27.51,15.14,2.71,5.22,4.25,10.98,4.49,16.86,.24-5.88,1.77-11.63,4.49-16.86,5.36-10.05,16.15-15.99,27.51-15.14,0,0-.09,26.3-24,31.2Z"/>
        <path class="cls-31" d="M264,168c32,0,32,32,32,32-32,0-32-32-32-32Zm56,176s0-32,32-32c0,0,0,32-32,32Zm-176,56s0-32,32-32c0,0,0,32-32,32Zm72-184c32,0,32,32,32,32-32,0-32-32-32-32Zm32,32s0-32,32-32c0,0,0,32-32,32Z"/>
        <path class="cls-12" d="M248,24C124.29,24,24,124.29,24,248s100.29,224,224,224,224-100.29,224-224S371.71,24,248,24Zm0,432c-114.88,0-208-93.12-208-208S133.12,40,248,40s208,93.12,208,208-93.12,208-208,208Z"/>
        <circle class="cls-2" cx="384" cy="184" r="8"/>
        <ellipse class="cls-11" cx="413.43" cy="269.74" rx="13.14" ry="18.29" transform="translate(-69.64 371.35) rotate(-45)"/>
        <ellipse class="cls-11" cx="221.41" cy="269.68" rx="13.14" ry="18.29" transform="translate(-125.84 235.55) rotate(-45)"/>
        <ellipse class="cls-11" cx="365.45" cy="149.81" rx="6.6" ry="9.18" transform="translate(1.11 302.29) rotate(-45)"/>
        <ellipse class="cls-11" cx="269.4" cy="269.79" rx="6.6" ry="9.18" transform="translate(-111.87 269.51) rotate(-45)"/>
        <ellipse class="cls-11" cx="229.35" cy="389.79" rx="6.6" ry="9.18" transform="translate(-208.45 276.34) rotate(-45)"/>
        <ellipse class="cls-11" cx="347.42" cy="137.81" rx="3.3" ry="4.59" transform="translate(4.31 286.02) rotate(-45)"/>
      </g>
    </g>
  </g>
</svg>